<svg width="965" height="306" viewBox="0 0 965 306" fill="none" xmlns="http://www.w3.org/2000/svg">
<path fill-rule="evenodd" clip-rule="evenodd" d="M0 0.00862626V262.009H101C101 262.009 223.5 264.509 221 130.509C218.5 -3.49136 101 0.00862626 101 0.00862626H0ZM46 54.0136V208.007H104.945C104.945 208.007 176.437 209.476 174.978 130.716C173.519 51.9565 104.945 54.0136 104.945 54.0136H46Z" fill="#41B883"/>
<path fill-rule="evenodd" clip-rule="evenodd" d="M45 52.0052V209.579H105.315C105.315 209.579 178.47 211.083 176.977 130.492C175.484 49.9002 105.315 52.0052 105.315 52.0052H45ZM85.9302 101.118V160.464H108.841C108.841 160.464 136.628 161.031 136.061 130.678C135.494 100.325 108.841 101.118 108.841 101.118H85.9302Z" fill="#34495E"/>
<path d="M302 262H288V251.8L276 262H246C242.133 262 238.8 260.667 236 258C233.333 255.2 232 251.867 232 248V234C232 230.133 233.333 226.867 236 224.2C238.8 221.4 242.133 220 246 220H286L274 231.8H246V250H288V204H232L244 192H288C291.867 192 295.133 193.4 297.8 196.2C300.6 198.867 302 202.133 302 206V262ZM386.922 192L374.722 204H340.922V220H368.922C372.789 220 376.055 221.4 378.722 224.2C381.522 226.867 382.922 230.133 382.922 234V248C382.922 251.867 381.522 255.2 378.722 258C376.055 260.667 372.789 262 368.922 262H326.922V250H368.922V232H340.922C337.055 232 333.722 230.667 330.922 228C328.255 225.2 326.922 221.867 326.922 218V206C326.922 202.133 328.255 198.867 330.922 196.2C333.722 193.4 337.055 192 340.922 192H386.922ZM479.852 262H465.852V204H423.852V262H409.852V160L423.852 146V202L433.852 192H465.852C469.718 192 472.985 193.4 475.652 196.2C478.452 198.867 479.852 202.133 479.852 206V262ZM677.852 248C677.852 251.867 676.452 255.2 673.652 258C670.985 260.667 667.718 262 663.852 262H621.852C617.985 262 614.652 260.667 611.852 258C609.185 255.2 607.852 251.867 607.852 248V206C607.852 202.133 609.185 198.867 611.852 196.2C614.652 193.4 617.985 192 621.852 192H663.852C667.718 192 670.985 193.4 673.652 196.2C676.452 198.867 677.852 202.133 677.852 206V248ZM663.852 250V204H621.852V250H663.852ZM772.898 262H758.898V251.8L746.898 262H716.898C713.032 262 709.698 260.667 706.898 258C704.232 255.2 702.898 251.867 702.898 248V234C702.898 230.133 704.232 226.867 706.898 224.2C709.698 221.4 713.032 220 716.898 220H756.898L744.898 231.8H716.898V250H758.898V204H702.898L714.898 192H758.898C762.765 192 766.032 193.4 768.698 196.2C771.498 198.867 772.898 202.133 772.898 206V262ZM856.82 220H842.82V204H814.82V262H800.82V192H814.82V202L824.82 192H842.82C846.687 192 849.954 193.4 852.62 196.2C855.42 198.867 856.82 202.133 856.82 206V220ZM948.75 262H934.75V252L924.75 262H892.75C888.883 262 885.55 260.667 882.75 258C880.083 255.2 878.75 251.867 878.75 248V206C878.75 202.133 880.083 198.867 882.75 196.2C885.55 193.4 888.883 192 892.75 192H934.75V160L948.75 146V262ZM934.75 250V194L924.75 204H892.75V250H934.75Z" fill="#34495E"/>
<path d="M579.852 248C579.852 251.867 578.452 255.2 575.652 258C572.985 260.667 569.718 262 565.852 262H523.852V250.2L509.852 264V160L523.852 146V202L533.852 192H565.852C569.718 192 572.985 193.4 575.652 196.2C578.452 198.867 579.852 202.133 579.852 206V248ZM565.852 250V204H523.852V250H565.852Z" fill="#41B883"/>
</svg>
