<svg width="222" height="263" viewBox="0 0 222 263" fill="none" xmlns="http://www.w3.org/2000/svg">
<path fill-rule="evenodd" clip-rule="evenodd" d="M0 0.00862626V262.009H101C101 262.009 223.5 264.509 221 130.509C218.5 -3.49136 101 0.00862626 101 0.00862626H0ZM46 54.0136V208.007H104.945C104.945 208.007 176.437 209.476 174.978 130.716C173.519 51.9565 104.945 54.0136 104.945 54.0136H46Z" fill="#41B883"/>
<path fill-rule="evenodd" clip-rule="evenodd" d="M46 54.0136V208.007H104.945C104.945 208.007 176.437 209.476 174.978 130.716C173.519 51.9565 104.945 54.0136 104.945 54.0136H46ZM86 102.01V160.008H108.39C108.39 160.008 135.546 160.561 134.992 130.898C134.437 101.236 108.39 102.01 108.39 102.01H86Z" fill="#34495E"/>
</svg>
