<svg width="500" height="500" viewBox="0 0 380 380" fill="none" xmlns="http://www.w3.org/2000/svg"><g>  <rect width="100%" height="100%" fill="#6BD9E9" /><g clip-path="url(#clip0)"><circle cx="27.0757" cy="26.295" r="10.8823" fill="white" fill-opacity="0.3"/><circle cx="56.8403" cy="26.295" r="10.8823" fill="white" fill-opacity="0.3"/><circle cx="86.605" cy="26.295" r="10.8823" fill="white" fill-opacity="0.3"/><circle cx="116.37" cy="26.295" r="10.8823" fill="white" fill-opacity="0.3"/><circle cx="146.134" cy="26.295" r="10.8823" fill="white" fill-opacity="0.3"/><circle cx="175.899" cy="26.295" r="10.8823" fill="white" fill-opacity="0.3"/><circle cx="205.664" cy="26.295" r="10.8823" fill="white" fill-opacity="0.3"/><circle cx="235.428" cy="26.295" r="10.8823" fill="white" fill-opacity="0.3"/><circle cx="265.193" cy="26.295" r="10.8823" fill="white" fill-opacity="0.3"/><circle cx="294.958" cy="26.295" r="10.8823" fill="white" fill-opacity="0.3"/><circle cx="324.722" cy="26.295" r="10.8823" fill="white" fill-opacity="0.3"/><circle cx="354.487" cy="26.295" r="10.8823" fill="white" fill-opacity="0.3"/><circle cx="12.1938" cy="56.0597" r="10.8823" fill="white" fill-opacity="0.3"/><circle cx="41.9585" cy="56.0597" r="10.8823" fill="white" fill-opacity="0.3"/><circle cx="71.7231" cy="56.0597" r="10.8823" fill="white" fill-opacity="0.3"/><circle cx="101.488" cy="56.0597" r="10.8823" fill="white" fill-opacity="0.3"/><circle cx="131.252" cy="56.0597" r="10.8823" fill="white" fill-opacity="0.3"/><circle cx="161.017" cy="56.0597" r="10.8823" fill="white" fill-opacity="0.3"/><circle cx="190.782" cy="56.0597" r="10.8823" fill="white" fill-opacity="0.3"/><circle cx="220.546" cy="56.0597" r="10.8823" fill="white" fill-opacity="0.3"/><circle cx="250.311" cy="56.0597" r="10.8823" fill="white" fill-opacity="0.3"/><circle cx="280.076" cy="56.0597" r="10.8823" fill="white" fill-opacity="0.3"/><circle cx="309.84" cy="56.0597" r="10.8823" fill="white" fill-opacity="0.3"/><circle cx="339.605" cy="56.0597" r="10.8823" fill="white" fill-opacity="0.3"/><circle cx="369.37" cy="56.0597" r="10.8823" fill="white" fill-opacity="0.3"/><circle cx="27.0757" cy="85.8243" r="10.8823" fill="white" fill-opacity="0.3"/><circle cx="56.8403" cy="85.8243" r="10.8823" fill="white" fill-opacity="0.3"/><circle cx="86.605" cy="85.8243" r="10.8823" fill="white" fill-opacity="0.3"/><circle cx="116.37" cy="85.8243" r="10.8823" fill="white" fill-opacity="0.3"/><circle cx="146.134" cy="85.8243" r="10.8823" fill="white" fill-opacity="0.3"/><circle cx="175.899" cy="85.8243" r="10.8823" fill="white" fill-opacity="0.3"/><circle cx="205.664" cy="85.8243" r="10.8823" fill="white" fill-opacity="0.3"/><circle cx="235.428" cy="85.8243" r="10.8823" fill="white" fill-opacity="0.3"/><circle cx="265.193" cy="85.8243" r="10.8823" fill="white" fill-opacity="0.3"/><circle cx="294.958" cy="85.8243" r="10.8823" fill="white" fill-opacity="0.3"/><circle cx="324.722" cy="85.8243" r="10.8823" fill="white" fill-opacity="0.3"/><circle cx="354.487" cy="85.8243" r="10.8823" fill="white" fill-opacity="0.3"/><circle cx="12.1938" cy="115.589" r="10.8823" fill="white" fill-opacity="0.3"/><circle cx="41.9585" cy="115.589" r="10.8823" fill="white" fill-opacity="0.3"/><circle cx="71.7231" cy="115.589" r="10.8823" fill="white" fill-opacity="0.3"/><circle cx="101.488" cy="115.589" r="10.8823" fill="white" fill-opacity="0.3"/><circle cx="131.252" cy="115.589" r="10.8823" fill="white" fill-opacity="0.3"/><circle cx="161.017" cy="115.589" r="10.8823" fill="white" fill-opacity="0.3"/><circle cx="190.782" cy="115.589" r="10.8823" fill="white" fill-opacity="0.3"/><circle cx="220.546" cy="115.589" r="10.8823" fill="white" fill-opacity="0.3"/><circle cx="250.311" cy="115.589" r="10.8823" fill="white" fill-opacity="0.3"/><circle cx="280.076" cy="115.589" r="10.8823" fill="white" fill-opacity="0.3"/><circle cx="309.84" cy="115.589" r="10.8823" fill="white" fill-opacity="0.3"/><circle cx="339.605" cy="115.589" r="10.8823" fill="white" fill-opacity="0.3"/><circle cx="369.37" cy="115.589" r="10.8823" fill="white" fill-opacity="0.3"/><circle cx="27.0757" cy="145.354" r="10.8823" fill="white" fill-opacity="0.3"/><circle cx="56.8403" cy="145.354" r="10.8823" fill="white" fill-opacity="0.3"/><circle cx="86.605" cy="145.354" r="10.8823" fill="white" fill-opacity="0.3"/><circle cx="116.37" cy="145.354" r="10.8823" fill="white" fill-opacity="0.3"/><circle cx="146.134" cy="145.354" r="10.8823" fill="white" fill-opacity="0.3"/><circle cx="175.899" cy="145.354" r="10.8823" fill="white" fill-opacity="0.3"/><circle cx="205.664" cy="145.354" r="10.8823" fill="white" fill-opacity="0.3"/><circle cx="235.428" cy="145.354" r="10.8823" fill="white" fill-opacity="0.3"/><circle cx="265.193" cy="145.354" r="10.8823" fill="white" fill-opacity="0.3"/><circle cx="294.958" cy="145.354" r="10.8823" fill="white" fill-opacity="0.3"/><circle cx="324.722" cy="145.354" r="10.8823" fill="white" fill-opacity="0.3"/><circle cx="354.487" cy="145.354" r="10.8823" fill="white" fill-opacity="0.3"/><circle cx="12.1938" cy="175.118" r="10.8823" fill="white" fill-opacity="0.3"/><circle cx="41.9585" cy="175.118" r="10.8823" fill="white" fill-opacity="0.3"/><circle cx="71.7231" cy="175.118" r="10.8823" fill="white" fill-opacity="0.3"/><circle cx="101.488" cy="175.118" r="10.8823" fill="white" fill-opacity="0.3"/><circle cx="131.252" cy="175.118" r="10.8823" fill="white" fill-opacity="0.3"/><circle cx="161.017" cy="175.118" r="10.8823" fill="white" fill-opacity="0.3"/><circle cx="190.782" cy="175.118" r="10.8823" fill="white" fill-opacity="0.3"/><circle cx="220.546" cy="175.118" r="10.8823" fill="white" fill-opacity="0.3"/><circle cx="250.311" cy="175.118" r="10.8823" fill="white" fill-opacity="0.3"/><circle cx="280.076" cy="175.118" r="10.8823" fill="white" fill-opacity="0.3"/><circle cx="309.84" cy="175.118" r="10.8823" fill="white" fill-opacity="0.3"/><circle cx="339.605" cy="175.118" r="10.8823" fill="white" fill-opacity="0.3"/><circle cx="369.37" cy="175.118" r="10.8823" fill="white" fill-opacity="0.3"/><circle cx="27.0757" cy="204.883" r="10.8823" fill="white" fill-opacity="0.3"/><circle cx="56.8403" cy="204.883" r="10.8823" fill="white" fill-opacity="0.3"/><circle cx="86.605" cy="204.883" r="10.8823" fill="white" fill-opacity="0.3"/><circle cx="116.37" cy="204.883" r="10.8823" fill="white" fill-opacity="0.3"/><circle cx="146.134" cy="204.883" r="10.8823" fill="white" fill-opacity="0.3"/><circle cx="175.899" cy="204.883" r="10.8823" fill="white" fill-opacity="0.3"/><circle cx="205.664" cy="204.883" r="10.8823" fill="white" fill-opacity="0.3"/><circle cx="235.428" cy="204.883" r="10.8823" fill="white" fill-opacity="0.3"/><circle cx="265.193" cy="204.883" r="10.8823" fill="white" fill-opacity="0.3"/><circle cx="294.958" cy="204.883" r="10.8823" fill="white" fill-opacity="0.3"/><circle cx="324.722" cy="204.883" r="10.8823" fill="white" fill-opacity="0.3"/><circle cx="354.487" cy="204.883" r="10.8823" fill="white" fill-opacity="0.3"/><circle cx="12.1938" cy="234.647" r="10.8823" fill="white" fill-opacity="0.3"/><circle cx="41.9585" cy="234.647" r="10.8823" fill="white" fill-opacity="0.3"/><circle cx="71.7231" cy="234.647" r="10.8823" fill="white" fill-opacity="0.3"/><circle cx="101.488" cy="234.647" r="10.8823" fill="white" fill-opacity="0.3"/><circle cx="131.252" cy="234.647" r="10.8823" fill="white" fill-opacity="0.3"/><circle cx="161.017" cy="234.647" r="10.8823" fill="white" fill-opacity="0.3"/><circle cx="190.782" cy="234.647" r="10.8823" fill="white" fill-opacity="0.3"/><circle cx="220.546" cy="234.647" r="10.8823" fill="white" fill-opacity="0.3"/><circle cx="250.311" cy="234.647" r="10.8823" fill="white" fill-opacity="0.3"/><circle cx="280.076" cy="234.647" r="10.8823" fill="white" fill-opacity="0.3"/><circle cx="309.84" cy="234.647" r="10.8823" fill="white" fill-opacity="0.3"/><circle cx="339.605" cy="234.647" r="10.8823" fill="white" fill-opacity="0.3"/><circle cx="369.37" cy="234.647" r="10.8823" fill="white" fill-opacity="0.3"/><circle cx="27.0757" cy="264.412" r="10.8823" fill="white" fill-opacity="0.3"/><circle cx="56.8403" cy="264.412" r="10.8823" fill="white" fill-opacity="0.3"/><circle cx="86.605" cy="264.412" r="10.8823" fill="white" fill-opacity="0.3"/><circle cx="116.37" cy="264.412" r="10.8823" fill="white" fill-opacity="0.3"/><circle cx="146.134" cy="264.412" r="10.8823" fill="white" fill-opacity="0.3"/><circle cx="175.899" cy="264.412" r="10.8823" fill="white" fill-opacity="0.3"/><circle cx="205.664" cy="264.412" r="10.8823" fill="white" fill-opacity="0.3"/><circle cx="235.428" cy="264.412" r="10.8823" fill="white" fill-opacity="0.3"/><circle cx="265.193" cy="264.412" r="10.8823" fill="white" fill-opacity="0.3"/><circle cx="294.958" cy="264.412" r="10.8823" fill="white" fill-opacity="0.3"/><circle cx="324.722" cy="264.412" r="10.8823" fill="white" fill-opacity="0.3"/><circle cx="354.487" cy="264.412" r="10.8823" fill="white" fill-opacity="0.3"/><circle cx="12.1938" cy="294.177" r="10.8823" fill="white" fill-opacity="0.3"/><circle cx="41.9585" cy="294.177" r="10.8823" fill="white" fill-opacity="0.3"/><circle cx="71.7231" cy="294.177" r="10.8823" fill="white" fill-opacity="0.3"/><circle cx="101.488" cy="294.177" r="10.8823" fill="white" fill-opacity="0.3"/><circle cx="131.252" cy="294.177" r="10.8823" fill="white" fill-opacity="0.3"/><circle cx="161.017" cy="294.177" r="10.8823" fill="white" fill-opacity="0.3"/><circle cx="190.782" cy="294.177" r="10.8823" fill="white" fill-opacity="0.3"/><circle cx="220.546" cy="294.177" r="10.8823" fill="white" fill-opacity="0.3"/><circle cx="250.311" cy="294.177" r="10.8823" fill="white" fill-opacity="0.3"/><circle cx="280.076" cy="294.177" r="10.8823" fill="white" fill-opacity="0.3"/><circle cx="309.84" cy="294.177" r="10.8823" fill="white" fill-opacity="0.3"/><circle cx="339.605" cy="294.177" r="10.8823" fill="white" fill-opacity="0.3"/><circle cx="369.37" cy="294.177" r="10.8823" fill="white" fill-opacity="0.3"/><circle cx="27.0757" cy="323.941" r="10.8823" fill="white" fill-opacity="0.3"/><circle cx="56.8403" cy="323.941" r="10.8823" fill="white" fill-opacity="0.3"/><circle cx="86.605" cy="323.941" r="10.8823" fill="white" fill-opacity="0.3"/><circle cx="116.37" cy="323.941" r="10.8823" fill="white" fill-opacity="0.3"/><circle cx="146.134" cy="323.941" r="10.8823" fill="white" fill-opacity="0.3"/><circle cx="175.899" cy="323.941" r="10.8823" fill="white" fill-opacity="0.3"/><circle cx="205.664" cy="323.941" r="10.8823" fill="white" fill-opacity="0.3"/><circle cx="235.428" cy="323.941" r="10.8823" fill="white" fill-opacity="0.3"/><circle cx="265.193" cy="323.941" r="10.8823" fill="white" fill-opacity="0.3"/><circle cx="294.958" cy="323.941" r="10.8823" fill="white" fill-opacity="0.3"/><circle cx="324.722" cy="323.941" r="10.8823" fill="white" fill-opacity="0.3"/><circle cx="354.487" cy="323.941" r="10.8823" fill="white" fill-opacity="0.3"/><circle cx="12.1938" cy="353.706" r="10.8823" fill="white" fill-opacity="0.3"/><circle cx="41.9585" cy="353.706" r="10.8823" fill="white" fill-opacity="0.3"/><circle cx="71.7231" cy="353.706" r="10.8823" fill="white" fill-opacity="0.3"/><circle cx="101.488" cy="353.706" r="10.8823" fill="white" fill-opacity="0.3"/><circle cx="131.252" cy="353.706" r="10.8823" fill="white" fill-opacity="0.3"/><circle cx="161.017" cy="353.706" r="10.8823" fill="white" fill-opacity="0.3"/><circle cx="190.782" cy="353.706" r="10.8823" fill="white" fill-opacity="0.3"/><circle cx="220.546" cy="353.706" r="10.8823" fill="white" fill-opacity="0.3"/><circle cx="250.311" cy="353.706" r="10.8823" fill="white" fill-opacity="0.3"/><circle cx="280.076" cy="353.706" r="10.8823" fill="white" fill-opacity="0.3"/><circle cx="309.84" cy="353.706" r="10.8823" fill="white" fill-opacity="0.3"/><circle cx="339.605" cy="353.706" r="10.8823" fill="white" fill-opacity="0.3"/><circle cx="369.37" cy="353.706" r="10.8823" fill="white" fill-opacity="0.3"/></g><defs><clipPath id="clip0"><rect width="380" height="380" fill="white" transform="translate(0.78125)"/></clipPath></defs></g><g><g>  <g clip-path="url(#clip0)">  <path d="M244 362.5C229.6 342.5 218.333 303.834 217 284.5L148.5 255L120 362.5H244Z" fill="#F9C9B6" stroke="black" stroke-width="4"/>  <mask id="mask0" mask-type="alpha" maskUnits="userSpaceOnUse" x="120" y="255" width="124" height="118">  <path d="M244 372.5C229.6 352.5 218.333 303.834 217 284.5L148.5 255L120 372.5H244Z" fill="#AC6651"/>  </mask>  <g mask="url(#mask0)">  <g style="mix-blend-mode:multiply">  <ellipse cx="214" cy="253" rx="59" ry="54" fill="black"/>  </g>  </g>  <mask id="path-4-inside-1" fill="white">  <path fill-rule="evenodd" clip-rule="evenodd" d="M273.887 193.917C273.86 193.802 273.832 193.686 273.804 193.57C273.777 193.454 273.749 193.339 273.72 193.223L257.324 124.786C257.307 124.718 257.291 124.651 257.275 124.583C257.259 124.515 257.242 124.447 257.226 124.379L257.153 124.076L257.152 124.076C246.934 82.6315 205.157 57.148 163.583 67.1088C122.009 77.0696 96.3164 118.718 105.989 160.294L105.987 160.294L122.979 231.212L122.993 231.209C133.595 272.113 175.063 297.15 216.33 287.262C257.598 277.375 283.217 236.265 274.132 194.997L274.145 194.994L273.887 193.917Z"/>  </mask>  <path fill-rule="evenodd" clip-rule="evenodd" d="M273.887 193.917C273.86 193.802 273.832 193.686 273.804 193.57C273.777 193.454 273.749 193.339 273.72 193.223L257.324 124.786C257.307 124.718 257.291 124.651 257.275 124.583C257.259 124.515 257.242 124.447 257.226 124.379L257.153 124.076L257.152 124.076C246.934 82.6315 205.157 57.148 163.583 67.1088C122.009 77.0696 96.3164 118.718 105.989 160.294L105.987 160.294L122.979 231.212L122.993 231.209C133.595 272.113 175.063 297.15 216.33 287.262C257.598 277.375 283.217 236.265 274.132 194.997L274.145 194.994L273.887 193.917Z" fill="#F9C9B6"/>  <path d="M273.887 193.917L269.993 194.832L269.995 194.841L269.997 194.849L273.887 193.917ZM273.72 193.223L269.831 194.155L269.833 194.164L269.835 194.173L273.72 193.223ZM257.324 124.786L253.431 125.708L253.434 125.718L257.324 124.786ZM257.226 124.379L253.336 125.311L253.339 125.322L257.226 124.379ZM257.153 124.076L261.043 123.144L260.112 119.256L256.223 120.186L257.153 124.076ZM257.152 124.076L253.268 125.034L254.219 128.89L258.082 127.967L257.152 124.076ZM163.583 67.1088L162.651 63.2189L163.583 67.1088ZM105.989 160.294L106.923 164.183L110.785 163.255L109.885 159.387L105.989 160.294ZM105.987 160.294L105.053 156.405L101.166 157.338L102.097 161.226L105.987 160.294ZM122.979 231.212L119.089 232.144L120.021 236.035L123.912 235.101L122.979 231.212ZM122.993 231.209L126.865 230.205L125.879 226.402L122.059 227.319L122.993 231.209ZM216.33 287.262L215.398 283.372H215.398L216.33 287.262ZM274.132 194.997L273.201 191.107L269.382 192.021L270.226 195.857L274.132 194.997ZM274.145 194.994L275.076 198.884L278.967 197.952L278.035 194.062L274.145 194.994ZM277.781 193.003C277.752 192.881 277.723 192.76 277.694 192.638L269.915 194.502C269.941 194.612 269.967 194.722 269.993 194.832L277.781 193.003ZM277.694 192.638C277.665 192.517 277.636 192.395 277.606 192.274L269.835 194.173C269.861 194.282 269.888 194.392 269.915 194.502L277.694 192.638ZM253.434 125.718L269.831 194.155L277.61 192.291L261.213 123.854L253.434 125.718ZM261.216 123.864C261.199 123.794 261.182 123.722 261.165 123.651L253.385 125.515C253.401 125.579 253.416 125.643 253.431 125.708L261.216 123.864ZM261.165 123.651C261.148 123.58 261.131 123.509 261.113 123.437L253.339 125.322C253.354 125.386 253.37 125.45 253.385 125.515L261.165 123.651ZM253.263 125.008L253.336 125.311L261.116 123.447L261.043 123.144L253.263 125.008ZM258.082 127.967L258.084 127.966L256.223 120.186L256.222 120.186L258.082 127.967ZM261.036 123.119C250.292 79.5405 206.365 52.7454 162.651 63.2189L164.515 70.9987C203.949 61.5506 243.576 85.7226 253.268 125.034L261.036 123.119ZM162.651 63.2189C118.937 73.6924 91.9225 117.484 102.093 161.2L109.885 159.387C100.71 119.952 125.081 80.4469 164.515 70.9987L162.651 63.2189ZM106.921 164.183L106.923 164.183L105.055 156.404L105.053 156.405L106.921 164.183ZM126.869 230.28L109.877 159.362L102.097 161.226L119.089 232.144L126.869 230.28ZM122.059 227.319L122.045 227.322L123.912 235.101L123.926 235.098L122.059 227.319ZM119.121 232.212C130.269 275.223 173.87 301.548 217.262 291.152L215.398 283.372C176.255 292.751 136.921 269.003 126.865 230.205L119.121 232.212ZM217.262 291.152C260.654 280.756 287.592 237.53 278.039 194.137L270.226 195.857C278.843 235 254.542 273.994 215.398 283.372L217.262 291.152ZM273.213 191.104L273.201 191.107L275.064 198.887L275.076 198.884L273.213 191.104ZM269.997 194.849L270.255 195.926L278.035 194.062L277.777 192.985L269.997 194.849Z" fill="black" mask="url(#path-4-inside-1)"/>  </g>  <defs>  <clipPath id="clip0">  <rect width="200" height="320" fill="white" transform="translate(90 43)"/>  </clipPath>  </defs></g></g><g><path d="M219 134.214C224.667 131.548 238 129.114 246 140.714" stroke="black" stroke-width="4" stroke-linecap="round"/><path d="M143.579 159.521C145.65 153.61 153.261 142.396 167.142 144.822" stroke="black" stroke-width="4" stroke-linecap="round"/></g><g><path d="M157.5 200.5C141.9 200.1 139.667 188.333 140.5 182.5C143.3 184.5 174.5 181.833 187.5 181C189 188.5 184 191.5 184 191.5C184 191.5 177 201 157.5 200.5Z" fill="white"/><path d="M244.15 191.5C228.55 191.1 226.317 179.333 227.15 173.5C229.95 175.5 256.5 173.833 269.5 173C271 180.5 266.5 184 266.5 184C266.5 184 263.65 192 244.15 191.5Z" fill="white"/><path d="M145.5 191.5C151 180 161.5 184.5 161.5 195C160.086 198.775 145.5 201 145.5 191.5Z" fill="#0B0B0B" stroke="black" stroke-width="4"/><path d="M133.991 182.875C143.464 185.401 167.611 188.389 188.422 180.13M137.914 181.823C146.638 183.971 168.693 185.998 187.123 176.93" stroke="black" stroke-width="3"/><path d="M151.946 168.504C156.762 163.84 169.299 159.311 180.917 178.5M139.857 183.971C140.332 187.947 141.347 194.317 149.085 197.166C159.5 201 161 200 178.5 195.5" stroke="black" stroke-width="4"/><path d="M234 180C236.726 175.718 252.5 174.5 245 187.5C239 190 231.274 184.282 234 180Z" fill="#0B0B0B" stroke="black" stroke-width="4"/><path d="M220.5 172.671C228.676 175.077 251.875 179.384 270.144 172.671M227.271 172.671C234.804 174.731 253.926 176.985 270.144 169.515" stroke="black" stroke-width="3"/><path d="M235.034 157.5C239.732 154.05 253.5 162 260 173M229 173C228.942 176.48 229.15 182.604 235.034 186.699C241.671 191.318 247 191.5 260 188.5" stroke="black" stroke-width="4"/></g><g><path d="M323.366 382.863H50.4563C50.4907 382.793 50.5255 382.722 50.5604 382.651C55.1052 373.395 63.4899 356.319 74.4025 341.041C80.5961 332.37 87.5303 324.387 94.9416 318.772C102.354 313.156 110.061 310.04 117.892 310.726C132.946 312.043 146.355 320.285 159.817 328.56C161.092 329.344 162.368 330.129 163.646 330.908C178.131 339.735 193.005 347.931 209.365 344.345C214.899 343.131 218.629 340.535 220.976 337.18C223.29 333.873 224.122 330.029 224.266 326.517C224.41 322.999 223.871 319.674 223.311 317.256C223.049 316.126 222.779 315.179 222.564 314.484C226.189 310.835 230.027 308.71 233.989 307.753C238.284 306.716 242.876 307.016 247.707 308.445C257.437 311.323 267.847 318.697 278.007 328.179C296.621 345.552 313.7 369.323 323.366 382.863Z" fill="#9287FF" stroke="black" stroke-width="4.27431"/></g><g><path d="M216.047 259.892C226.884 257.931 233.233 245.955 231.025 233.754C228.817 221.553 218.674 212.563 207.837 214.524C197 216.485 190.651 228.461 192.859 240.662C195.067 252.863 205.21 261.853 216.047 259.892Z" fill="black" stroke="black" stroke-width="3.59115"/><mask id="mask0" mask-type="alpha" maskUnits="userSpaceOnUse" x="194" y="216" width="36" height="43"><ellipse cx="211.942" cy="237.208" rx="17.5976" ry="21.257" transform="rotate(-10.2582 211.942 237.208)" fill="#171921"/></mask><g mask="url(#mask0)"><ellipse cx="215.202" cy="255.22" rx="20.2046" ry="18.3047" transform="rotate(-10.2582 215.202 255.22)" fill="#FC909F"/></g></g><g><path d="M199.245 205.716C199.317 201.351 202.51 196.612 208.672 196.036C214.834 195.459 219.209 199.591 219.156 202.865" stroke="black" stroke-width="4"/></g><g><path d="M164.836 119.819C164.051 118.078 164.05 118.078 164.049 118.078L164.047 118.079L164.039 118.083L164.014 118.094C163.993 118.104 163.963 118.118 163.924 118.136C163.889 118.152 163.847 118.171 163.799 118.194C163.739 118.222 163.669 118.255 163.59 118.293C163.301 118.431 162.882 118.635 162.351 118.904C161.29 119.443 159.782 120.242 157.971 121.295C154.355 123.398 149.514 126.527 144.627 130.626C134.911 138.776 124.704 151.03 124.09 166.926C123.825 173.765 122.97 206.806 123.161 219.433C123.322 230.065 128.824 241.481 136.457 252.008C143.108 261.18 151.507 269.857 159.831 277.008C122.066 278.501 93.4547 273.546 74.12 268.121C64.0371 265.292 56.4733 262.334 51.4465 260.094C49.4594 259.208 47.8687 258.434 46.6754 257.825C55.7698 251.141 63.3569 239.682 68.3629 222.675C73.8528 204.024 76.2872 178.554 74.1512 144.963C72.2158 114.525 87.0079 88.8092 109.359 70.6291C131.734 52.4301 161.549 41.9109 189.237 41.9109C204.22 41.9109 216.376 44.8448 226.176 51.9616C235.979 59.081 243.667 70.5619 249.362 88.1322L249.757 89.3516L251.035 89.4485C263.411 90.3865 272.114 95.4881 278.531 103.662C285.017 111.924 289.239 123.422 292.335 137.232C294.375 146.332 292.389 155.311 290.001 165.651L289.889 166.133C287.552 176.25 284.951 187.505 286.095 200.666C287.125 212.51 291.852 224.135 295.782 233.074C296.286 234.222 296.775 235.321 297.242 236.368C298.616 239.455 299.792 242.096 300.585 244.253C301.117 245.698 301.424 246.79 301.522 247.566C301.572 247.963 301.555 248.168 301.541 248.254C301.096 248.665 300.272 249.12 298.956 249.522C297.587 249.94 295.863 250.248 293.881 250.442C289.92 250.828 285.138 250.738 280.543 250.296C275.941 249.853 271.637 249.067 268.622 248.108C267.091 247.622 266.033 247.134 265.436 246.711C265.344 246.646 265.274 246.591 265.221 246.546C265.594 245.259 266.131 243.723 266.752 241.949C269.947 232.824 275.347 217.398 271.855 197.08C269.765 184.924 264.189 163.457 259.161 145.11C256.643 135.919 254.254 127.483 252.495 121.344C251.615 118.275 250.893 115.78 250.391 114.052C250.139 113.187 249.943 112.515 249.81 112.058L249.657 111.538L249.618 111.405L249.608 111.372L249.606 111.363L249.605 111.361C249.605 111.361 249.605 111.36 247.772 111.899L249.605 111.36L248.676 108.201L246.395 110.575L246.394 110.575L246.39 110.579L246.371 110.599C246.352 110.618 246.324 110.647 246.285 110.687C246.207 110.766 246.087 110.886 245.927 111.044C245.606 111.361 245.123 111.83 244.481 112.429C243.198 113.627 241.285 115.343 238.783 117.394C233.778 121.498 226.427 126.938 217.067 132.257C199.249 142.382 174.216 152.037 144.245 151.29C153.86 142.359 159.391 135.018 162.561 129.701C164.328 126.736 165.359 124.403 165.954 122.778C166.251 121.965 166.439 121.331 166.555 120.884C166.613 120.66 166.652 120.484 166.679 120.356C166.692 120.292 166.702 120.24 166.71 120.2C166.713 120.18 166.716 120.163 166.719 120.149L166.722 120.131L166.723 120.124L166.723 120.12C166.724 120.119 166.724 120.117 164.836 119.819ZM164.836 119.819L164.051 118.078L167.275 116.623L166.724 120.117L164.836 119.819ZM265.067 246.388C265.07 246.388 265.082 246.402 265.096 246.428C265.072 246.401 265.065 246.388 265.067 246.388Z" fill="#876565" stroke="black" stroke-width="3.82184"/><path d="M250 89C250.5 93.5 249.7 102.5 248.5 108.5" stroke="black" stroke-width="4"/></g><g><path d="M120.5 183.176C118.17 182.408 115.655 182 113.08 182C102.587 182 94.0801 188.5 95.08 200.5C96.1216 213 103.587 217.5 114.08 217.5C115.248 217.5 116.391 217.397 117.5 217.201C118.711 216.987 119.881 216.661 121 216.235" stroke="#171921" stroke-width="8"/><path d="M121.5 216.036C119.22 216.979 116.713 217.5 114.08 217.5C103.587 217.5 96.1216 213 95.08 200.5C94.0801 188.5 102.587 182 113.08 182C116.217 182 119.267 182.606 122 183.73L121.5 216.036Z" fill="#F9C9B6"/><path d="M117.5 190.5C113.5 188.667 104.7 187.7 101.5 198.5" stroke="#171921" stroke-width="4"/><path d="M107 191C109.167 192.833 113.3 198.5 112.5 206.5" stroke="#171921" stroke-width="4"/></g><g><path d="M137 205L135.651 202.572C145.404 204.981 172.641 203.985 187 202.5C201.5 201 207 196 215.5 194C232 190.118 252 197 271 194C272.167 205.667 273.8 232.9 271 244.5C261 260 249 276.5 213 286C184.2 293.6 149.333 260.333 137 244.5C140.333 243.5 147 239.2 147 230C145.5 221.5 145 212 137 205Z" fill="#579EE0"/><path d="M122 178L137 205C145 212 145.5 221.5 147 230C147 239.2 140.333 243.5 137 244.5M137 244.5C132 238.667 122 225.9 122 221.5M137 244.5C149.333 260.333 184.2 293.6 213 286C249 276.5 261 260 271 244.5C273.8 232.9 272.167 205.667 271 194C252 197 232 190.118 215.5 194C207 196 201.5 201 187 202.5C172.5 204 144.87 205 135.37 202.5" stroke="white" stroke-width="4"/><path d="M143.5 216C153 216 180.5 215.9 190.5 213.5C203 210.5 213.981 204.866 224 203.5C235 202 260.5 207.5 272 203.5" stroke="white" stroke-width="10"/><path d="M222 194L234.5 204.5C234.5 204.5 233 246.5 225 254.5" stroke="white" stroke-width="2"/></g></svg>