<svg width="500" height="500" viewBox="0 0 380 380" fill="none" xmlns="http://www.w3.org/2000/svg"><g>  <rect width="100%" height="100%" fill="#6BD9E9" /><g clip-path="url(#clip0)"><path fill-rule="evenodd" clip-rule="evenodd" d="M0.78125 322.898L16.7812 312.822C32.7812 302.745 63.7812 284.271 95.7812 287.63C127.781 290.989 158.781 316.18 190.781 316.18C222.781 316.18 253.781 290.989 285.781 270.836C317.781 252.362 348.781 238.926 364.781 233.888L380.781 227.17V379.999H364.781C348.781 379.999 317.781 379.999 285.781 379.999C253.781 379.999 222.781 379.999 190.781 379.999C158.781 379.999 127.781 379.999 95.7812 379.999C63.7812 379.999 32.7812 379.999 16.7812 379.999H0.78125V322.898Z" fill="url(#paint0_linear)" fill-opacity="0.3"/><path fill-rule="evenodd" clip-rule="evenodd" d="M0.78125 64.842H16.7812C32.7812 64.842 63.7812 64.842 95.7812 85.6217C127.781 102.938 158.781 144.497 190.781 161.814C222.781 182.593 253.781 182.593 285.781 168.74C317.781 154.887 348.781 130.644 364.781 116.791L380.781 102.938V380H364.781C348.781 380 317.781 380 285.781 380C253.781 380 222.781 380 190.781 380C158.781 380 127.781 380 95.7812 380C63.7812 380 32.7812 380 16.7812 380H0.78125V64.842Z" fill="url(#paint1_linear)" fill-opacity="0.3"/></g><defs><linearGradient id="paint0_linear" x1="190.781" y1="227.17" x2="190.781" y2="379.999" gradientUnits="userSpaceOnUse"><stop stop-color="white"/><stop offset="1" stop-color="white" stop-opacity="0"/></linearGradient><linearGradient id="paint1_linear" x1="190.781" y1="64.842" x2="190.781" y2="380" gradientUnits="userSpaceOnUse"><stop stop-color="white"/><stop offset="1" stop-color="white" stop-opacity="0"/></linearGradient><clipPath id="clip0"><rect width="380" height="380" fill="white" transform="translate(0.78125)"/></clipPath></defs></g><g><g>  <g clip-path="url(#clip0)">  <path d="M244 362.5C229.6 342.5 218.333 303.834 217 284.5L148.5 255L120 362.5H244Z" fill="#F9C9B6" stroke="black" stroke-width="4"/>  <mask id="mask0" mask-type="alpha" maskUnits="userSpaceOnUse" x="120" y="255" width="124" height="118">  <path d="M244 372.5C229.6 352.5 218.333 303.834 217 284.5L148.5 255L120 372.5H244Z" fill="#AC6651"/>  </mask>  <g mask="url(#mask0)">  <g style="mix-blend-mode:multiply">  <ellipse cx="214" cy="253" rx="59" ry="54" fill="black"/>  </g>  </g>  <mask id="path-4-inside-1" fill="white">  <path fill-rule="evenodd" clip-rule="evenodd" d="M273.887 193.917C273.86 193.802 273.832 193.686 273.804 193.57C273.777 193.454 273.749 193.339 273.72 193.223L257.324 124.786C257.307 124.718 257.291 124.651 257.275 124.583C257.259 124.515 257.242 124.447 257.226 124.379L257.153 124.076L257.152 124.076C246.934 82.6315 205.157 57.148 163.583 67.1088C122.009 77.0696 96.3164 118.718 105.989 160.294L105.987 160.294L122.979 231.212L122.993 231.209C133.595 272.113 175.063 297.15 216.33 287.262C257.598 277.375 283.217 236.265 274.132 194.997L274.145 194.994L273.887 193.917Z"/>  </mask>  <path fill-rule="evenodd" clip-rule="evenodd" d="M273.887 193.917C273.86 193.802 273.832 193.686 273.804 193.57C273.777 193.454 273.749 193.339 273.72 193.223L257.324 124.786C257.307 124.718 257.291 124.651 257.275 124.583C257.259 124.515 257.242 124.447 257.226 124.379L257.153 124.076L257.152 124.076C246.934 82.6315 205.157 57.148 163.583 67.1088C122.009 77.0696 96.3164 118.718 105.989 160.294L105.987 160.294L122.979 231.212L122.993 231.209C133.595 272.113 175.063 297.15 216.33 287.262C257.598 277.375 283.217 236.265 274.132 194.997L274.145 194.994L273.887 193.917Z" fill="#F9C9B6"/>  <path d="M273.887 193.917L269.993 194.832L269.995 194.841L269.997 194.849L273.887 193.917ZM273.72 193.223L269.831 194.155L269.833 194.164L269.835 194.173L273.72 193.223ZM257.324 124.786L253.431 125.708L253.434 125.718L257.324 124.786ZM257.226 124.379L253.336 125.311L253.339 125.322L257.226 124.379ZM257.153 124.076L261.043 123.144L260.112 119.256L256.223 120.186L257.153 124.076ZM257.152 124.076L253.268 125.034L254.219 128.89L258.082 127.967L257.152 124.076ZM163.583 67.1088L162.651 63.2189L163.583 67.1088ZM105.989 160.294L106.923 164.183L110.785 163.255L109.885 159.387L105.989 160.294ZM105.987 160.294L105.053 156.405L101.166 157.338L102.097 161.226L105.987 160.294ZM122.979 231.212L119.089 232.144L120.021 236.035L123.912 235.101L122.979 231.212ZM122.993 231.209L126.865 230.205L125.879 226.402L122.059 227.319L122.993 231.209ZM216.33 287.262L215.398 283.372H215.398L216.33 287.262ZM274.132 194.997L273.201 191.107L269.382 192.021L270.226 195.857L274.132 194.997ZM274.145 194.994L275.076 198.884L278.967 197.952L278.035 194.062L274.145 194.994ZM277.781 193.003C277.752 192.881 277.723 192.76 277.694 192.638L269.915 194.502C269.941 194.612 269.967 194.722 269.993 194.832L277.781 193.003ZM277.694 192.638C277.665 192.517 277.636 192.395 277.606 192.274L269.835 194.173C269.861 194.282 269.888 194.392 269.915 194.502L277.694 192.638ZM253.434 125.718L269.831 194.155L277.61 192.291L261.213 123.854L253.434 125.718ZM261.216 123.864C261.199 123.794 261.182 123.722 261.165 123.651L253.385 125.515C253.401 125.579 253.416 125.643 253.431 125.708L261.216 123.864ZM261.165 123.651C261.148 123.58 261.131 123.509 261.113 123.437L253.339 125.322C253.354 125.386 253.37 125.45 253.385 125.515L261.165 123.651ZM253.263 125.008L253.336 125.311L261.116 123.447L261.043 123.144L253.263 125.008ZM258.082 127.967L258.084 127.966L256.223 120.186L256.222 120.186L258.082 127.967ZM261.036 123.119C250.292 79.5405 206.365 52.7454 162.651 63.2189L164.515 70.9987C203.949 61.5506 243.576 85.7226 253.268 125.034L261.036 123.119ZM162.651 63.2189C118.937 73.6924 91.9225 117.484 102.093 161.2L109.885 159.387C100.71 119.952 125.081 80.4469 164.515 70.9987L162.651 63.2189ZM106.921 164.183L106.923 164.183L105.055 156.404L105.053 156.405L106.921 164.183ZM126.869 230.28L109.877 159.362L102.097 161.226L119.089 232.144L126.869 230.28ZM122.059 227.319L122.045 227.322L123.912 235.101L123.926 235.098L122.059 227.319ZM119.121 232.212C130.269 275.223 173.87 301.548 217.262 291.152L215.398 283.372C176.255 292.751 136.921 269.003 126.865 230.205L119.121 232.212ZM217.262 291.152C260.654 280.756 287.592 237.53 278.039 194.137L270.226 195.857C278.843 235 254.542 273.994 215.398 283.372L217.262 291.152ZM273.213 191.104L273.201 191.107L275.064 198.887L275.076 198.884L273.213 191.104ZM269.997 194.849L270.255 195.926L278.035 194.062L277.777 192.985L269.997 194.849Z" fill="black" mask="url(#path-4-inside-1)"/>  </g>  <defs>  <clipPath id="clip0">  <rect width="200" height="320" fill="white" transform="translate(90 43)"/>  </clipPath>  </defs></g></g><g><path d="M147 150.5C153.167 153 168.1 153.5 178.5 135.5" stroke="black" stroke-width="4" stroke-linecap="round"/><path d="M214 128C219.167 133.333 232.1 140.8 242.5 128" stroke="black" stroke-width="4" stroke-linecap="round"/></g><g><ellipse cx="168.53" cy="168.403" rx="9" ry="13.5" transform="rotate(-6.77646 168.53 168.403)" fill="black"/><ellipse cx="232.53" cy="158.403" rx="9" ry="13.5" transform="rotate(-6.27568 232.53 158.403)" fill="black"/></g><g><path d="M323.366 382.863H50.4563C50.4907 382.793 50.5255 382.722 50.5604 382.651C55.1052 373.395 63.4899 356.319 74.4025 341.041C80.5961 332.37 87.5303 324.387 94.9416 318.772C102.354 313.156 110.061 310.04 117.892 310.726C132.946 312.043 146.355 320.285 159.817 328.56C161.092 329.344 162.368 330.129 163.646 330.908C178.131 339.735 193.005 347.931 209.365 344.345C214.899 343.131 218.629 340.535 220.976 337.18C223.29 333.873 224.122 330.029 224.266 326.517C224.41 322.999 223.871 319.674 223.311 317.256C223.049 316.126 222.779 315.179 222.564 314.484C226.189 310.835 230.027 308.71 233.989 307.753C238.284 306.716 242.876 307.016 247.707 308.445C257.437 311.323 267.847 318.697 278.007 328.179C296.621 345.552 313.7 369.323 323.366 382.863Z" fill="#E97C17" stroke="black" stroke-width="4.27431"/></g><g><path d="M179 248C182.211 240.043 194.107 223.233 216.007 219.652C237.907 216.071 249.127 228.107 252 234.572" stroke="black" stroke-width="4"/></g><g><path d="M205.687 185.055C205.89 188.898 207.385 197.137 211.735 199.353C217.174 202.123 212.91 211.306 202.729 210.717" stroke="#171921" stroke-width="4"/></g><g><path d="M154.607 119.73C141.788 149.827 113.644 157.737 110.869 164.547C109.167 168.726 120.583 177.748 99.163 182.978C95.2057 186.806 93.1851 194.177 93.1851 199.915C93.1851 210.296 100.906 225.57 122.576 218.098C147.099 236.526 169.904 272.384 134.957 306.342C123.974 320.57 149.087 334.52 161.265 343.507C161.265 343.507 126.201 342.219 119.015 334.552C130.25 363.334 116.351 384.111 116.351 384.111C116.351 384.111 108.076 333.469 82.5197 329.991C74.7144 349.685 100.469 365.524 100.469 365.524C100.469 365.524 62.1721 366.765 61.4638 349.462C57.143 349.638 62.2834 369.484 62.2834 369.484C62.2834 369.484 47.8571 363.644 45.02 348.298C42.1829 332.951 60.7036 319.336 59.609 304.146C58.5143 288.956 37.1756 280.338 36.4604 262.914C35.7451 245.49 62.9384 224.934 62.3392 210.296C61.7401 195.657 53.9316 198.358 54.3381 191.911C54.7447 185.464 61.072 179.101 61.072 179.101C61.072 179.101 61.6046 155.984 62.8635 146.809C64.1225 137.634 76.2918 124.359 82.035 124.124C55.0214 79.4512 107.207 48.0779 119.916 44.6622C132.624 41.2465 130.855 44.6552 132.624 46.7243C163.736 22.8676 184.422 33.3113 187.009 32.2229C229.604 16.3246 238.276 50.811 239.149 52.4092C274.741 50.9523 270.57 73.8341 270.851 80.6839C288.537 79.96 287.259 123.625 287.785 125.631C333.436 172.818 310.14 194.65 306.485 208.381C310.881 245.297 354.693 253.769 317.449 297.327C341.121 333.454 317.189 347.17 317.189 347.17C317.189 347.17 313.886 313.284 298.409 321.154C291.564 331.834 296.174 337.505 299.768 350.455C304.975 369.215 266.018 380.511 266.018 380.511C266.018 380.511 285.732 370.325 286.603 362.443C289.787 348.046 260.065 335.608 258.659 322.781C249.486 333.835 252.297 341.8 257.604 347.065C265.466 351.96 271.591 355.174 271.591 355.174C271.591 355.174 263.206 352.624 257.604 347.065C244.521 338.921 226.63 326.124 224.145 315.743C220.167 299.123 219.234 302.103 218.355 291.952C217.477 281.801 237.059 279.093 247.58 269.936C258.101 260.779 273.108 245.379 273.108 219.627C273.108 202.821 260.777 138.154 245.426 99.593C239.3 98.2552 239.149 133.856 239.149 133.856C239.149 133.856 215.268 112.172 210.699 110.734C206.13 109.295 210.699 141.838 210.699 141.838C210.699 141.838 177.832 121.415 176.939 99.593C168.507 96.0527 161.921 138.154 161.921 138.154L154.607 119.73Z" fill="#F6CF45" stroke="black" stroke-width="4"/></g><g><path d="M121.466 215.861L122 215.286V214.501V180.999V179.88L121.046 179.295C117.312 177.004 112.772 175.75 108.08 175.75C102.44 175.75 97.1591 177.497 93.3977 181.045C89.5942 184.632 87.5421 189.877 88.0869 196.416C88.6179 202.788 90.7569 207.477 94.3047 210.593C94.0134 211.592 93.9273 212.67 94.0624 213.803C94.4517 217.072 96.1039 219.427 98.6572 220.878C101.091 222.261 104.206 222.75 107.524 222.75C113.003 222.75 117.808 219.803 121.466 215.861Z" stroke="black" stroke-width="4"/><path fill-rule="evenodd" clip-rule="evenodd" d="M127.972 196.734C128.043 196.082 128.08 195.42 128.08 194.75C128.08 184.533 118.573 177.75 108.08 177.75C97.5866 177.75 89.0801 184.25 90.08 196.25C90.6364 202.927 93.0258 207.322 96.7307 209.967C96.1423 210.991 95.8848 212.194 96.0483 213.567C96.6774 218.848 101.186 220.75 107.524 220.75C118.629 220.75 127.416 206.703 127.972 196.734Z" fill="#F9C9B6"/><path d="M112.5 186.25C108.5 184.417 99.7 183.45 96.5 194.25" stroke="#171921" stroke-width="4"/><path d="M102 186.75C104.167 188.583 108.3 194.25 107.5 202.25" stroke="#171921" stroke-width="4"/></g><g><path d="M185.5 194.5C193.333 186.667 214.3 174.1 235.5 186.5" stroke="black" stroke-width="4"/><path d="M120 179C131.333 196.333 164 227.3 172 206.5" stroke="black" stroke-width="4"/><path d="M266.5 173C273.5 177.167 290.4 185.4 280 189C269.6 192.6 260.333 190.5 257 189" stroke="black" stroke-width="4"/><path d="M263.689 179.112C255.239 184.341 254.132 181.291 254.635 179.112C259.162 172.575 253.126 176.207 242.563 172.575C232 168.944 237.282 183.47 228.228 189.28C220.669 194.131 235.018 200.175 232 204.532C228.983 208.89 239.545 225.595 242.563 216.153C245.581 206.711 254.635 215.427 263.689 216.153C272.743 216.88 274.252 210.343 274.252 204.532C274.252 198.722 269.725 194.364 274.252 189.28C278.779 184.196 274.252 172.575 263.689 179.112Z" fill="white" stroke="#D8AE5D"/><ellipse cx="252.5" cy="196" rx="9.5" ry="9" fill="#E2C55E"/><path d="M190.373 178.481C181.321 184.652 180.136 181.052 180.674 178.481C185.524 170.767 172.23 171.591 162.123 178.481C150.808 186.195 162.085 183.624 152.387 190.48C144.289 196.205 159.661 203.337 156.428 208.48C153.195 213.622 157.29 218.585 167.743 222.193C180.674 226.657 180.674 221.336 190.373 222.193C200.072 223.05 201.688 215.337 201.688 208.48C201.688 201.623 209.14 190.48 201.688 190.48C196.877 190.48 201.688 170.767 190.373 178.481Z" fill="white" stroke="#D8AE5D"/><ellipse cx="179.5" cy="198" rx="9.5" ry="9" fill="#E2C55E"/></g></svg>