<svg width="222" height="263" viewBox="0 0 222 263" fill="none" xmlns="http://www.w3.org/2000/svg">
<path fill-rule="evenodd" clip-rule="evenodd" d="M0 0.00862626V262.009H101C101 262.009 223.5 264.509 221 130.509C218.5 -3.49136 101 0.00862626 101 0.00862626H0ZM46 54.0136V208.007H104.945C104.945 208.007 176.437 209.476 174.978 130.716C173.519 51.9565 104.945 54.0136 104.945 54.0136H46Z" fill="#41B883"/>
<path fill-rule="evenodd" clip-rule="evenodd" d="M45 52.0052V209.579H105.315C105.315 209.579 178.47 211.083 176.977 130.492C175.484 49.9002 105.315 52.0052 105.315 52.0052H45ZM85.9302 101.118V160.464H108.841C108.841 160.464 136.628 161.031 136.061 130.678C135.494 100.326 108.841 101.118 108.841 101.118H85.9302Z" fill="#34495E"/>
</svg>
