<svg width="500" height="500" viewBox="0 0 380 380" fill="none" xmlns="http://www.w3.org/2000/svg"><g>  <rect width="100%" height="100%" fill="#FFEDEF" /><g clip-path="url(#clip0)"><circle cx="190.781" cy="273.807" r="253.303" fill="white" fill-opacity="0.2"/><circle cx="190.783" cy="303.573" r="156.036" fill="white" fill-opacity="0.2"/><circle cx="190.782" cy="279.579" r="195.199" fill="white" fill-opacity="0.2"/><circle cx="190.782" cy="380" r="106.193" fill="white" fill-opacity="0.2"/></g><defs><clipPath id="clip0"><rect width="380" height="380" fill="white" transform="translate(0.78125)"/></clipPath></defs></g><g><g clip-path="url(#clip0)"><path d="M244 362.5C229.6 342.5 218.333 303.834 217 284.5L148.5 255L120 362.5H244Z" fill="#FFDACB" stroke="black" stroke-width="4"/><mask id="mask0" mask-type="alpha" maskUnits="userSpaceOnUse" x="120" y="255" width="124" height="118"><path d="M244 372.5C229.6 352.5 218.333 303.834 217 284.5L148.5 255L120 372.5H244Z" fill="#AC6651"/></mask><g mask="url(#mask0)"><g style="mix-blend-mode:multiply"><ellipse cx="214" cy="253" rx="59" ry="54" fill="black"/></g></g><mask id="path-4-inside-1" fill="white"><path fill-rule="evenodd" clip-rule="evenodd" d="M273.887 193.917C273.86 193.802 273.832 193.686 273.804 193.57C273.777 193.454 273.749 193.339 273.72 193.223L257.324 124.786C257.307 124.718 257.291 124.651 257.275 124.583C257.259 124.515 257.242 124.447 257.226 124.379L257.153 124.076L257.152 124.076C246.934 82.6315 205.157 57.148 163.583 67.1088C122.009 77.0696 96.3164 118.718 105.989 160.294L105.987 160.294L122.979 231.212L122.993 231.209C133.595 272.113 175.063 297.15 216.33 287.262C257.598 277.375 283.217 236.265 274.132 194.997L274.145 194.994L273.887 193.917Z"/></mask><path fill-rule="evenodd" clip-rule="evenodd" d="M273.887 193.917C273.86 193.802 273.832 193.686 273.804 193.57C273.777 193.454 273.749 193.339 273.72 193.223L257.324 124.786C257.307 124.718 257.291 124.651 257.275 124.583C257.259 124.515 257.242 124.447 257.226 124.379L257.153 124.076L257.152 124.076C246.934 82.6315 205.157 57.148 163.583 67.1088C122.009 77.0696 96.3164 118.718 105.989 160.294L105.987 160.294L122.979 231.212L122.993 231.209C133.595 272.113 175.063 297.15 216.33 287.262C257.598 277.375 283.217 236.265 274.132 194.997L274.145 194.994L273.887 193.917Z" fill="#FFDACB"/><path d="M273.887 193.917L269.993 194.832L269.995 194.841L269.997 194.849L273.887 193.917ZM273.72 193.223L269.831 194.155L269.833 194.164L269.835 194.173L273.72 193.223ZM257.324 124.786L253.431 125.708L253.434 125.718L257.324 124.786ZM257.226 124.379L253.336 125.311L253.339 125.322L257.226 124.379ZM257.153 124.076L261.043 123.144L260.112 119.256L256.223 120.186L257.153 124.076ZM257.152 124.076L253.268 125.034L254.219 128.89L258.082 127.967L257.152 124.076ZM163.583 67.1088L162.651 63.2189L163.583 67.1088ZM105.989 160.294L106.923 164.183L110.785 163.255L109.885 159.387L105.989 160.294ZM105.987 160.294L105.053 156.405L101.166 157.338L102.097 161.226L105.987 160.294ZM122.979 231.212L119.089 232.144L120.021 236.035L123.912 235.101L122.979 231.212ZM122.993 231.209L126.865 230.205L125.879 226.402L122.059 227.319L122.993 231.209ZM216.33 287.262L215.398 283.372H215.398L216.33 287.262ZM274.132 194.997L273.201 191.107L269.382 192.021L270.226 195.857L274.132 194.997ZM274.145 194.994L275.076 198.884L278.967 197.952L278.035 194.062L274.145 194.994ZM277.781 193.003C277.752 192.881 277.723 192.76 277.694 192.638L269.915 194.502C269.941 194.612 269.967 194.722 269.993 194.832L277.781 193.003ZM277.694 192.638C277.665 192.517 277.636 192.395 277.606 192.274L269.835 194.173C269.861 194.282 269.888 194.392 269.915 194.502L277.694 192.638ZM253.434 125.718L269.831 194.155L277.61 192.291L261.213 123.854L253.434 125.718ZM261.216 123.864C261.199 123.794 261.182 123.722 261.165 123.651L253.385 125.515C253.401 125.579 253.416 125.643 253.431 125.708L261.216 123.864ZM261.165 123.651C261.148 123.58 261.131 123.509 261.113 123.437L253.339 125.322C253.354 125.386 253.37 125.45 253.385 125.515L261.165 123.651ZM253.263 125.008L253.336 125.311L261.116 123.447L261.043 123.144L253.263 125.008ZM258.082 127.967L258.084 127.966L256.223 120.186L256.222 120.186L258.082 127.967ZM261.036 123.119C250.292 79.5405 206.365 52.7454 162.651 63.2189L164.515 70.9987C203.949 61.5506 243.576 85.7226 253.268 125.034L261.036 123.119ZM162.651 63.2189C118.937 73.6924 91.9225 117.484 102.093 161.2L109.885 159.387C100.71 119.952 125.081 80.4469 164.515 70.9987L162.651 63.2189ZM106.921 164.183L106.923 164.183L105.055 156.404L105.053 156.405L106.921 164.183ZM126.869 230.28L109.877 159.362L102.097 161.226L119.089 232.144L126.869 230.28ZM122.059 227.319L122.045 227.322L123.912 235.101L123.926 235.098L122.059 227.319ZM119.121 232.212C130.269 275.223 173.87 301.548 217.262 291.152L215.398 283.372C176.255 292.751 136.921 269.003 126.865 230.205L119.121 232.212ZM217.262 291.152C260.654 280.756 287.592 237.53 278.039 194.137L270.226 195.857C278.843 235 254.542 273.994 215.398 283.372L217.262 291.152ZM273.213 191.104L273.201 191.107L275.064 198.887L275.076 198.884L273.213 191.104ZM269.997 194.849L270.255 195.926L278.035 194.062L277.777 192.985L269.997 194.849Z" fill="black" mask="url(#path-4-inside-1)"/><path d="M270.125 194.454C279.614 234.058 255.201 273.856 215.597 283.344C192.29 288.929 168.915 282.771 151.691 268.686C134.499 252.8 130.499 201.3 126.692 176.949C140.691 208.45 176.316 210.895 210.192 204.95C238.691 199.95 261.49 198.95 261.49 159.95C263.376 162.566 268.468 187.537 270.125 194.454Z" fill="#FFDACB"/></g><ellipse cx="209.75" cy="188.445" rx="69.5387" ry="31.1548" transform="rotate(-12.0124 209.75 188.445)" fill="url(#paint0_radial)"/><defs><radialGradient id="paint0_radial" cx="0" cy="0" r="1" gradientUnits="userSpaceOnUse" gradientTransform="translate(209.75 188.445) rotate(90) scale(31.1548 69.5387)"><stop stop-color="#ED9E56"/><stop offset="1" stop-color="#F7B9B9" stop-opacity="0"/></radialGradient><clipPath id="clip0"><rect width="200" height="320" fill="white" transform="translate(90 43)"/></clipPath></defs></g><g><path d="M234.854 135.346C236.244 139.903 236.184 145.478 235.579 148.149C230.939 149.131 229.035 136.648 228.663 130.283C232.205 129.11 233.568 131.129 234.854 135.346Z" fill="#403838" stroke="black" stroke-width="4"/><path d="M166.043 139.696C164.653 144.252 164.713 149.827 165.318 152.498C169.958 153.481 171.862 140.997 172.234 134.632C168.692 133.459 167.329 135.478 166.043 139.696Z" fill="#403838" stroke="black" stroke-width="4"/></g><g><path d="M157.5 200.5C141.9 200.1 139.667 188.333 140.5 182.5C143.3 184.5 174.5 181.833 187.5 181C189 188.5 184 191.5 184 191.5C184 191.5 177 201 157.5 200.5Z" fill="white"/><path d="M244.15 191.5C228.55 191.1 226.317 179.333 227.15 173.5C229.95 175.5 256.5 173.833 269.5 173C271 180.5 266.5 184 266.5 184C266.5 184 263.65 192 244.15 191.5Z" fill="white"/><path d="M145.5 191.5C151 180 161.5 184.5 161.5 195C160.086 198.775 145.5 201 145.5 191.5Z" fill="#0B0B0B" stroke="black" stroke-width="4"/><path d="M133.991 182.875C143.464 185.401 167.611 188.389 188.422 180.13M137.914 181.823C146.638 183.971 168.693 185.998 187.123 176.93" stroke="black" stroke-width="3"/><path d="M151.946 168.504C156.762 163.84 169.299 159.311 180.917 178.5M139.857 183.971C140.332 187.947 141.347 194.317 149.085 197.166C159.5 201 161 200 178.5 195.5" stroke="black" stroke-width="4"/><path d="M234 180C236.726 175.718 252.5 174.5 245 187.5C239 190 231.274 184.282 234 180Z" fill="#0B0B0B" stroke="black" stroke-width="4"/><path d="M220.5 172.671C228.676 175.077 251.875 179.384 270.144 172.671M227.271 172.671C234.804 174.731 253.926 176.985 270.144 169.515" stroke="black" stroke-width="3"/><path d="M235.034 157.5C239.732 154.05 253.5 162 260 173M229 173C228.942 176.48 229.15 182.604 235.034 186.699C241.671 191.318 247 191.5 260 188.5" stroke="black" stroke-width="4"/></g><g><path d="M189.771 359.577C189.771 359.577 189.771 359.577 191 357.999L189.771 359.577L191.493 360.918L192.679 359.087L192.679 359.086L192.681 359.083L192.69 359.069L192.731 359.007C192.742 358.99 192.755 358.97 192.769 358.948C192.803 358.897 192.847 358.831 192.9 358.752C193.05 358.527 193.275 358.194 193.57 357.769C194.158 356.918 195.023 355.701 196.118 354.246C198.312 351.331 201.416 347.481 205.071 343.718C208.737 339.944 212.898 336.317 217.198 333.793C221.514 331.259 225.777 329.949 229.733 330.482C272.171 336.204 303.402 355.001 323.674 383H50.3745C66.6742 353.658 89.8579 334.982 127.445 326.412C129.046 326.047 131.224 326.158 133.947 326.791C136.642 327.418 139.715 328.519 143.028 329.975C149.655 332.888 157.052 337.136 164.004 341.536C170.945 345.929 177.39 350.442 182.104 353.859C184.459 355.567 186.379 356.999 187.709 358.003C188.374 358.505 188.891 358.9 189.241 359.169C189.416 359.303 189.55 359.406 189.639 359.475L189.739 359.552L189.764 359.572L189.77 359.576L189.771 359.577Z" fill="#878787" stroke="black" stroke-width="4"/><path d="M115.613 329.085L120.779 309.853C120.989 309.074 121.996 308.854 122.54 309.449C137.403 325.714 156.16 325.076 162.385 324.33C163.23 324.228 163.892 325.153 163.495 325.906L150.338 350.859C150.136 351.241 149.724 351.452 149.3 351.364C145.352 350.541 125.677 345.732 115.729 329.867C115.583 329.635 115.542 329.35 115.613 329.085Z" fill="#b6b6b6" stroke="black" stroke-width="4"/><path d="M246.195 328.981L234.614 309.499C234.221 308.837 233.252 308.848 232.833 309.494C227.096 318.33 217.202 322.4 213.742 323.602C213.119 323.819 212.834 324.558 213.17 325.125L226.673 347.94C226.874 348.281 227.255 348.465 227.635 348.357C229.77 347.749 237.095 344.685 246.182 330.021C246.377 329.706 246.384 329.3 246.195 328.981Z" fill="#b6b6b6" stroke="black" stroke-width="4"/><path d="M172.5 346.5L163.5 325L156.5 340L172.5 346.5Z" fill="black" stroke="black" stroke-width="4" stroke-linejoin="round"/><path d="M204 345.5L213 324L220 339L204 345.5Z" fill="black" stroke="black" stroke-width="4" stroke-linejoin="round"/><path d="M133.5 306L121.5 309L131.5 315.5L133.5 306Z" fill="black" stroke="black" stroke-width="4" stroke-linejoin="round"/><path d="M223 306L234 309L227 315.5L223 306Z" fill="black" stroke="black" stroke-width="4" stroke-linejoin="round"/></g><g><path d="M206 221.696C210.167 219.363 227 216.396 227 223.196C227 231.696 215.5 231.196 215.5 231.196C215.5 231.196 228.545 228.035 226 237.196C223.5 246.196 216.5 242.696 214.5 241.696" stroke="black" stroke-width="4"/></g><g><path d="M200.278 183.927C205.498 181.94 214.601 182.54 214.041 192.64C213.543 201.615 204.334 203.398 201.4 201.305" stroke="black" stroke-width="4"/></g><g><path d="M170.271 99.673C167.272 95.8177 165.612 98.3136 162.157 103.51C161.185 104.972 160.07 106.648 158.743 108.457C158.41 108.911 157.966 109.267 157.424 109.531C157.323 109.709 157.182 109.872 156.999 110.018C149.51 113.892 146.637 114.486 144.152 115C141.353 115.578 139.046 116.055 131.195 120.999C122.411 126.529 119.614 146.693 119.614 156.026C119.614 159.392 121.614 169.473 123.914 181.064C127.99 201.607 133.006 226.893 129.497 227.946C126.869 228.735 124.871 220.721 122.478 211.127C119.87 200.673 116.795 188.343 111.928 183.477C105.908 177.457 103.315 180.116 99.7271 183.794C97.7526 185.818 95.4772 188.151 92.1639 189.516C92.1639 189.516 86.6738 186.222 81.7329 175.241C76.7919 164.261 71.302 142.85 73.4978 126.379C75.6935 109.909 88.8696 86.8515 109.183 81.3604C110.369 81.0399 111.487 80.7755 112.542 80.5617C112.557 80.341 112.585 80.1233 112.625 79.9089C115.007 67.2814 124.704 51.9107 150.508 40.3807C176.311 28.8506 211.448 49.7156 226.82 59.5965C228.426 60.6286 229.858 61.5409 231.15 62.3641L231.151 62.3651C242.227 69.4216 243.021 69.9276 254.82 83.2023C267.995 98.026 270.74 117.241 268.544 126.575C268.383 127.26 268.227 127.932 268.075 128.592C267.595 130.662 267.146 132.601 266.656 134.377C269.723 153.375 271.719 184.318 271.193 188.527C270.644 192.918 271.742 191.272 271.742 191.272V195.116L270.644 189.076L260.5 149.5C260 147.5 259.5 145.5 259.115 145.155C254.801 141.7 251.275 140.645 248.267 139.746C245.466 138.908 243.115 138.205 240.997 135.822C238.758 133.303 237.227 133.21 235.748 133.12C230.258 135.316 200.467 117.241 198.82 113.947C197.173 110.653 190.036 110.654 184.546 112.849C180.274 114.558 176.335 108.622 172.987 103.576C172.032 102.136 171.124 100.769 170.271 99.673Z" fill="#FC909F" stroke="black" stroke-width="4"/></g><g><path d="M121.466 215.861L122 215.286V214.501V180.999V179.88L121.046 179.295C117.312 177.004 112.772 175.75 108.08 175.75C102.44 175.75 97.1591 177.497 93.3977 181.045C89.5942 184.632 87.5421 189.877 88.0869 196.416C88.6179 202.788 90.7569 207.477 94.3047 210.593C94.0134 211.592 93.9273 212.67 94.0624 213.803C94.4517 217.072 96.1039 219.427 98.6572 220.878C101.091 222.261 104.206 222.75 107.524 222.75C113.003 222.75 117.808 219.803 121.466 215.861Z" stroke="black" stroke-width="4"/><path fill-rule="evenodd" clip-rule="evenodd" d="M127.972 196.734C128.043 196.082 128.08 195.42 128.08 194.75C128.08 184.533 118.573 177.75 108.08 177.75C97.5866 177.75 89.0801 184.25 90.08 196.25C90.6364 202.927 93.0258 207.322 96.7307 209.967C96.1423 210.991 95.8848 212.194 96.0483 213.567C96.6774 218.848 101.186 220.75 107.524 220.75C118.629 220.75 127.416 206.703 127.972 196.734Z" fill="#FFDACB"/><path d="M112.5 186.25C108.5 184.417 99.7 183.45 96.5 194.25" stroke="#171921" stroke-width="4"/><path d="M102 186.75C104.167 188.583 108.3 194.25 107.5 202.25" stroke="#171921" stroke-width="4"/></g></svg>