<svg width="500" height="500" viewBox="0 0 380 380" fill="none" xmlns="http://www.w3.org/2000/svg"><g>  <rect width="100%" height="100%" fill="#9287FF" /></g><g><g clip-path="url(#clip0)"><path d="M244 362.5C229.6 342.5 218.333 303.834 217 284.5L148.5 255L120 362.5H244Z" fill="#F9C9B6" stroke="black" stroke-width="4"/><mask id="mask0" mask-type="alpha" maskUnits="userSpaceOnUse" x="120" y="255" width="124" height="118"><path d="M244 372.5C229.6 352.5 218.333 303.834 217 284.5L148.5 255L120 372.5H244Z" fill="#AC6651"/></mask><g mask="url(#mask0)"><g style="mix-blend-mode:multiply"><ellipse cx="214" cy="253" rx="59" ry="54" fill="black"/></g></g><mask id="path-4-inside-1" fill="white"><path fill-rule="evenodd" clip-rule="evenodd" d="M273.887 193.917C273.86 193.802 273.832 193.686 273.804 193.57C273.777 193.454 273.749 193.339 273.72 193.223L257.324 124.786C257.307 124.718 257.291 124.651 257.275 124.583C257.259 124.515 257.242 124.447 257.226 124.379L257.153 124.076L257.152 124.076C246.934 82.6315 205.157 57.148 163.583 67.1088C122.009 77.0696 96.3164 118.718 105.989 160.294L105.987 160.294L122.979 231.212L122.993 231.209C133.595 272.113 175.063 297.15 216.33 287.262C257.598 277.375 283.217 236.265 274.132 194.997L274.145 194.994L273.887 193.917Z"/></mask><path fill-rule="evenodd" clip-rule="evenodd" d="M273.887 193.917C273.86 193.802 273.832 193.686 273.804 193.57C273.777 193.454 273.749 193.339 273.72 193.223L257.324 124.786C257.307 124.718 257.291 124.651 257.275 124.583C257.259 124.515 257.242 124.447 257.226 124.379L257.153 124.076L257.152 124.076C246.934 82.6315 205.157 57.148 163.583 67.1088C122.009 77.0696 96.3164 118.718 105.989 160.294L105.987 160.294L122.979 231.212L122.993 231.209C133.595 272.113 175.063 297.15 216.33 287.262C257.598 277.375 283.217 236.265 274.132 194.997L274.145 194.994L273.887 193.917Z" fill="#F9C9B6"/><path d="M273.887 193.917L269.993 194.832L269.995 194.841L269.997 194.849L273.887 193.917ZM273.72 193.223L269.831 194.155L269.833 194.164L269.835 194.173L273.72 193.223ZM257.324 124.786L253.431 125.708L253.434 125.718L257.324 124.786ZM257.226 124.379L253.336 125.311L253.339 125.322L257.226 124.379ZM257.153 124.076L261.043 123.144L260.112 119.256L256.223 120.186L257.153 124.076ZM257.152 124.076L253.268 125.034L254.219 128.89L258.082 127.967L257.152 124.076ZM163.583 67.1088L162.651 63.2189L163.583 67.1088ZM105.989 160.294L106.923 164.183L110.785 163.255L109.885 159.387L105.989 160.294ZM105.987 160.294L105.053 156.405L101.166 157.338L102.097 161.226L105.987 160.294ZM122.979 231.212L119.089 232.144L120.021 236.035L123.912 235.101L122.979 231.212ZM122.993 231.209L126.865 230.205L125.879 226.402L122.059 227.319L122.993 231.209ZM216.33 287.262L215.398 283.372H215.398L216.33 287.262ZM274.132 194.997L273.201 191.107L269.382 192.021L270.226 195.857L274.132 194.997ZM274.145 194.994L275.076 198.884L278.967 197.952L278.035 194.062L274.145 194.994ZM277.781 193.003C277.752 192.881 277.723 192.76 277.694 192.638L269.915 194.502C269.941 194.612 269.967 194.722 269.993 194.832L277.781 193.003ZM277.694 192.638C277.665 192.517 277.636 192.395 277.606 192.274L269.835 194.173C269.861 194.282 269.888 194.392 269.915 194.502L277.694 192.638ZM253.434 125.718L269.831 194.155L277.61 192.291L261.213 123.854L253.434 125.718ZM261.216 123.864C261.199 123.794 261.182 123.722 261.165 123.651L253.385 125.515C253.401 125.579 253.416 125.643 253.431 125.708L261.216 123.864ZM261.165 123.651C261.148 123.58 261.131 123.509 261.113 123.437L253.339 125.322C253.354 125.386 253.37 125.45 253.385 125.515L261.165 123.651ZM253.263 125.008L253.336 125.311L261.116 123.447L261.043 123.144L253.263 125.008ZM258.082 127.967L258.084 127.966L256.223 120.186L256.222 120.186L258.082 127.967ZM261.036 123.119C250.292 79.5405 206.365 52.7454 162.651 63.2189L164.515 70.9987C203.949 61.5506 243.576 85.7226 253.268 125.034L261.036 123.119ZM162.651 63.2189C118.937 73.6924 91.9225 117.484 102.093 161.2L109.885 159.387C100.71 119.952 125.081 80.4469 164.515 70.9987L162.651 63.2189ZM106.921 164.183L106.923 164.183L105.055 156.404L105.053 156.405L106.921 164.183ZM126.869 230.28L109.877 159.362L102.097 161.226L119.089 232.144L126.869 230.28ZM122.059 227.319L122.045 227.322L123.912 235.101L123.926 235.098L122.059 227.319ZM119.121 232.212C130.269 275.223 173.87 301.548 217.262 291.152L215.398 283.372C176.255 292.751 136.921 269.003 126.865 230.205L119.121 232.212ZM217.262 291.152C260.654 280.756 287.592 237.53 278.039 194.137L270.226 195.857C278.843 235 254.542 273.994 215.398 283.372L217.262 291.152ZM273.213 191.104L273.201 191.107L275.064 198.887L275.076 198.884L273.213 191.104ZM269.997 194.849L270.255 195.926L278.035 194.062L277.777 192.985L269.997 194.849Z" fill="black" mask="url(#path-4-inside-1)"/><path d="M270.125 194.454C279.614 234.058 255.201 273.856 215.597 283.344C192.29 288.929 168.915 282.771 151.691 268.686C134.499 252.8 130.499 201.3 126.692 176.949C140.691 208.45 176.316 210.895 210.192 204.95C238.691 199.95 261.49 198.95 261.49 159.95C263.376 162.566 268.468 187.537 270.125 194.454Z" fill="#F9C9B6"/></g><ellipse cx="209.75" cy="188.445" rx="69.5387" ry="31.1548" transform="rotate(-12.0124 209.75 188.445)" fill="url(#paint0_radial)"/><defs><radialGradient id="paint0_radial" cx="0" cy="0" r="1" gradientUnits="userSpaceOnUse" gradientTransform="translate(209.75 188.445) rotate(90) scale(31.1548 69.5387)"><stop stop-color="#ED9E56"/><stop offset="1" stop-color="#F7B9B9" stop-opacity="0"/></radialGradient><clipPath id="clip0"><rect width="200" height="320" fill="white" transform="translate(90 43)"/></clipPath></defs></g><g><path d="M234.854 135.346C236.244 139.903 236.184 145.478 235.579 148.149C230.939 149.131 229.035 136.648 228.663 130.283C232.205 129.11 233.568 131.129 234.854 135.346Z" fill="#403838" stroke="black" stroke-width="4"/><path d="M166.043 139.696C164.653 144.252 164.713 149.827 165.318 152.498C169.958 153.481 171.862 140.997 172.234 134.632C168.692 133.459 167.329 135.478 166.043 139.696Z" fill="#403838" stroke="black" stroke-width="4"/></g><g><circle cx="167.24" cy="159.24" r="12" transform="rotate(-6.27568 167.24 159.24)" fill="#D2EFF3"/><ellipse cx="168.53" cy="168.403" rx="9" ry="13.5" transform="rotate(-6.77646 168.53 168.403)" fill="black"/><circle cx="231.019" cy="150.612" r="12" transform="rotate(-6.27568 231.019 150.612)" fill="#D2EFF3"/><ellipse cx="232.53" cy="158.403" rx="9" ry="13.5" transform="rotate(-6.27568 232.53 158.403)" fill="black"/></g><g><path d="M323.366 382.863H50.4563C50.4907 382.793 50.5255 382.722 50.5604 382.651C55.1052 373.395 63.4899 356.319 74.4025 341.041C80.5961 332.37 87.5303 324.387 94.9416 318.772C102.354 313.156 110.061 310.04 117.892 310.726C132.946 312.043 146.355 320.285 159.817 328.56C161.092 329.344 162.368 330.129 163.646 330.908C178.131 339.735 193.005 347.931 209.365 344.345C214.899 343.131 218.629 340.535 220.976 337.18C223.29 333.873 224.122 330.029 224.266 326.517C224.41 322.999 223.871 319.674 223.311 317.256C223.049 316.126 222.779 315.179 222.564 314.484C226.189 310.835 230.027 308.71 233.989 307.753C238.284 306.716 242.876 307.016 247.707 308.445C257.437 311.323 267.847 318.697 278.007 328.179C296.621 345.552 313.7 369.323 323.366 382.863Z" fill="#000000" stroke="black" stroke-width="4.27431"/></g><g><path d="M188 229.165C192.94 235.612 200.427 242.754 211.976 241.126C223.525 239.497 228.664 231.53 227.149 225.079" stroke="black" stroke-width="4"/></g><g><path d="M206.5 184C209.167 188.167 212 191.5 218.5 191.5C218.5 200 213 199 213 199" stroke="black" stroke-width="4"/></g><g><path d="M96.6691 293.267C96.6691 267.627 68.0267 179.959 78.6032 131.639C89.1798 83.3186 109.21 59.1734 134.9 50.1638C160.591 41.1542 168.239 47.6344 196.958 50.1624C225.678 52.6904 245.384 58.8787 257.256 87.9823C269.128 117.086 266.402 134.056 272.182 158.795C277.962 183.534 283.849 224.613 283.849 256.925C283.849 289.238 281.868 286.441 287.313 290.32C292.757 294.199 306.226 293.267 306.226 293.267C305.173 296.6 284.928 310.088 290.717 313.772C296.506 317.456 308.495 313.772 308.495 313.772C308.495 313.772 308.892 325.12 290.717 328.574C272.542 332.027 232.925 334.341 228.182 328.574C223.439 322.806 223.16 324.527 222.189 313.772C221.218 303.017 211.693 284.477 217.713 284.477C223.733 284.477 264.617 269.91 272.182 231.311C279.747 192.713 263.482 158.795 263.482 158.795C254.404 105.729 236.248 80.0075 240.002 101.39C240.002 101.39 242.538 118.212 240.002 118.212C237.465 118.212 226.565 94.9777 223.733 94.9777C220.901 94.9777 225.524 118.866 222.189 120.865C218.854 122.865 200.426 126.747 196.958 121.586C193.49 116.424 185.258 95.9277 185.258 95.9277C185.258 95.9277 188.82 123.372 188.82 126.565C188.82 129.759 162.661 133.308 156.798 131.639C150.935 129.97 143.004 115.957 143.004 115.957C143.004 115.957 126.75 152.872 134.9 158.795C143.05 164.718 146.006 201.704 143.004 208.043C140.001 214.382 134.209 175.013 129.21 173.093C124.211 171.173 108.755 181.774 117.662 193.388C126.569 205.002 123.903 209.552 123.903 213.423C123.903 217.294 117.662 221.829 117.662 221.829C117.662 221.829 131.601 251.515 137.161 258.235C142.722 264.955 156.798 284.885 156.798 299.676C156.798 314.467 152.211 320.124 152.211 320.124L137.69 331.347C137.69 331.347 129.21 344.356 117.662 352.278C106.114 360.2 92.8751 363.43 78.6032 356.739C64.3313 350.048 52.3096 313.772 52.3096 313.772C52.3096 313.772 71.704 327.819 71.704 320.124V299.676C71.704 299.676 96.6691 318.908 96.6691 293.267Z" fill="#6BD9E9" stroke="black" stroke-width="5"/></g><g><path d="M120.5 183.176C118.17 182.408 115.655 182 113.08 182C102.587 182 94.0801 188.5 95.08 200.5C96.1216 213 103.587 217.5 114.08 217.5C115.248 217.5 116.391 217.397 117.5 217.201C118.711 216.987 119.881 216.661 121 216.235" stroke="#171921" stroke-width="8"/><path d="M121.5 216.036C119.22 216.979 116.713 217.5 114.08 217.5C103.587 217.5 96.1216 213 95.08 200.5C94.0801 188.5 102.587 182 113.08 182C116.217 182 119.267 182.606 122 183.73L121.5 216.036Z" fill="#F9C9B6"/><path d="M117.5 190.5C113.5 188.667 104.7 187.7 101.5 198.5" stroke="#171921" stroke-width="4"/><path d="M107 191C109.167 192.833 113.3 198.5 112.5 206.5" stroke="#171921" stroke-width="4"/></g><g><path d="M142.961 177.5L108.461 184.125" stroke="black" stroke-width="4" stroke-linecap="round"/><path d="M138.949 160.94C138.079 157.481 140.401 154.032 143.933 153.535L182.649 148.094C185.931 147.633 188.965 149.919 189.426 153.201L194.993 192.811C195.454 196.093 193.168 199.127 189.886 199.588L155.414 204.433C152.377 204.86 149.507 202.928 148.76 199.955L138.949 160.94Z" stroke="black" stroke-width="4"/><path d="M261.212 143.964C261.095 140.399 257.912 137.723 254.38 138.22L215.663 143.661C212.382 144.122 210.096 147.156 210.557 150.437L216.124 190.048C216.585 193.33 219.619 195.616 222.9 195.155L257.373 190.31C260.409 189.883 262.636 187.236 262.535 184.171L261.212 143.964Z" stroke="black" stroke-width="4"/><path d="M191.961 172.125L213.961 168.625" stroke="black" stroke-width="4"/></g></svg>