<svg width="500" height="500" viewBox="0 0 380 380" fill="none" xmlns="http://www.w3.org/2000/svg"><g>  <rect width="100%" height="100%" fill="#D2EFF3" /></g><g><g>  <g clip-path="url(#clip0)">  <path d="M244 362.5C229.6 342.5 218.333 303.834 217 284.5L148.5 255L120 362.5H244Z" fill="#F9C9B6" stroke="black" stroke-width="4"/>  <mask id="mask0" mask-type="alpha" maskUnits="userSpaceOnUse" x="120" y="255" width="124" height="118">  <path d="M244 372.5C229.6 352.5 218.333 303.834 217 284.5L148.5 255L120 372.5H244Z" fill="#AC6651"/>  </mask>  <g mask="url(#mask0)">  <g style="mix-blend-mode:multiply">  <ellipse cx="214" cy="253" rx="59" ry="54" fill="black"/>  </g>  </g>  <mask id="path-4-inside-1" fill="white">  <path fill-rule="evenodd" clip-rule="evenodd" d="M273.887 193.917C273.86 193.802 273.832 193.686 273.804 193.57C273.777 193.454 273.749 193.339 273.72 193.223L257.324 124.786C257.307 124.718 257.291 124.651 257.275 124.583C257.259 124.515 257.242 124.447 257.226 124.379L257.153 124.076L257.152 124.076C246.934 82.6315 205.157 57.148 163.583 67.1088C122.009 77.0696 96.3164 118.718 105.989 160.294L105.987 160.294L122.979 231.212L122.993 231.209C133.595 272.113 175.063 297.15 216.33 287.262C257.598 277.375 283.217 236.265 274.132 194.997L274.145 194.994L273.887 193.917Z"/>  </mask>  <path fill-rule="evenodd" clip-rule="evenodd" d="M273.887 193.917C273.86 193.802 273.832 193.686 273.804 193.57C273.777 193.454 273.749 193.339 273.72 193.223L257.324 124.786C257.307 124.718 257.291 124.651 257.275 124.583C257.259 124.515 257.242 124.447 257.226 124.379L257.153 124.076L257.152 124.076C246.934 82.6315 205.157 57.148 163.583 67.1088C122.009 77.0696 96.3164 118.718 105.989 160.294L105.987 160.294L122.979 231.212L122.993 231.209C133.595 272.113 175.063 297.15 216.33 287.262C257.598 277.375 283.217 236.265 274.132 194.997L274.145 194.994L273.887 193.917Z" fill="#F9C9B6"/>  <path d="M273.887 193.917L269.993 194.832L269.995 194.841L269.997 194.849L273.887 193.917ZM273.72 193.223L269.831 194.155L269.833 194.164L269.835 194.173L273.72 193.223ZM257.324 124.786L253.431 125.708L253.434 125.718L257.324 124.786ZM257.226 124.379L253.336 125.311L253.339 125.322L257.226 124.379ZM257.153 124.076L261.043 123.144L260.112 119.256L256.223 120.186L257.153 124.076ZM257.152 124.076L253.268 125.034L254.219 128.89L258.082 127.967L257.152 124.076ZM163.583 67.1088L162.651 63.2189L163.583 67.1088ZM105.989 160.294L106.923 164.183L110.785 163.255L109.885 159.387L105.989 160.294ZM105.987 160.294L105.053 156.405L101.166 157.338L102.097 161.226L105.987 160.294ZM122.979 231.212L119.089 232.144L120.021 236.035L123.912 235.101L122.979 231.212ZM122.993 231.209L126.865 230.205L125.879 226.402L122.059 227.319L122.993 231.209ZM216.33 287.262L215.398 283.372H215.398L216.33 287.262ZM274.132 194.997L273.201 191.107L269.382 192.021L270.226 195.857L274.132 194.997ZM274.145 194.994L275.076 198.884L278.967 197.952L278.035 194.062L274.145 194.994ZM277.781 193.003C277.752 192.881 277.723 192.76 277.694 192.638L269.915 194.502C269.941 194.612 269.967 194.722 269.993 194.832L277.781 193.003ZM277.694 192.638C277.665 192.517 277.636 192.395 277.606 192.274L269.835 194.173C269.861 194.282 269.888 194.392 269.915 194.502L277.694 192.638ZM253.434 125.718L269.831 194.155L277.61 192.291L261.213 123.854L253.434 125.718ZM261.216 123.864C261.199 123.794 261.182 123.722 261.165 123.651L253.385 125.515C253.401 125.579 253.416 125.643 253.431 125.708L261.216 123.864ZM261.165 123.651C261.148 123.58 261.131 123.509 261.113 123.437L253.339 125.322C253.354 125.386 253.37 125.45 253.385 125.515L261.165 123.651ZM253.263 125.008L253.336 125.311L261.116 123.447L261.043 123.144L253.263 125.008ZM258.082 127.967L258.084 127.966L256.223 120.186L256.222 120.186L258.082 127.967ZM261.036 123.119C250.292 79.5405 206.365 52.7454 162.651 63.2189L164.515 70.9987C203.949 61.5506 243.576 85.7226 253.268 125.034L261.036 123.119ZM162.651 63.2189C118.937 73.6924 91.9225 117.484 102.093 161.2L109.885 159.387C100.71 119.952 125.081 80.4469 164.515 70.9987L162.651 63.2189ZM106.921 164.183L106.923 164.183L105.055 156.404L105.053 156.405L106.921 164.183ZM126.869 230.28L109.877 159.362L102.097 161.226L119.089 232.144L126.869 230.28ZM122.059 227.319L122.045 227.322L123.912 235.101L123.926 235.098L122.059 227.319ZM119.121 232.212C130.269 275.223 173.87 301.548 217.262 291.152L215.398 283.372C176.255 292.751 136.921 269.003 126.865 230.205L119.121 232.212ZM217.262 291.152C260.654 280.756 287.592 237.53 278.039 194.137L270.226 195.857C278.843 235 254.542 273.994 215.398 283.372L217.262 291.152ZM273.213 191.104L273.201 191.107L275.064 198.887L275.076 198.884L273.213 191.104ZM269.997 194.849L270.255 195.926L278.035 194.062L277.777 192.985L269.997 194.849Z" fill="black" mask="url(#path-4-inside-1)"/>  </g>  <defs>  <clipPath id="clip0">  <rect width="200" height="320" fill="white" transform="translate(90 43)"/>  </clipPath>  </defs></g></g><g><path d="M147 150.5C153.167 153 168.1 153.5 178.5 135.5" stroke="black" stroke-width="4" stroke-linecap="round"/><path d="M214 128C219.167 133.333 232.1 140.8 242.5 128" stroke="black" stroke-width="4" stroke-linecap="round"/><path d="M157.148 150.458L151 145.031" stroke="black" stroke-width="4" stroke-linecap="round"/><path d="M236.219 133.444L238.004 125.44" stroke="black" stroke-width="4" stroke-linecap="round"/><path d="M165.597 146.814L161.551 139.682" stroke="black" stroke-width="4" stroke-linecap="round"/><path d="M228.142 133.019L229.08 124.872" stroke="black" stroke-width="4" stroke-linecap="round"/><path d="M172.674 141.201L170.473 133.301" stroke="black" stroke-width="4" stroke-linecap="round"/><path d="M219.993 132.032L219.217 123.868" stroke="black" stroke-width="4" stroke-linecap="round"/></g><g><path d="M183.5 183.5C183.5 192.851 175.703 200.5 166 200.5C156.297 200.5 148.5 192.851 148.5 183.5C148.5 174.149 156.297 166.5 166 166.5C175.703 166.5 183.5 174.149 183.5 183.5Z" fill="white" stroke="black" stroke-width="3"/><path d="M260.5 175.5C260.5 184.851 252.703 192.5 243 192.5C233.297 192.5 225.5 184.851 225.5 175.5C225.5 166.149 233.297 158.5 243 158.5C252.703 158.5 260.5 166.149 260.5 175.5Z" fill="white" stroke="black" stroke-width="3"/><ellipse cx="162.5" cy="183" rx="15.5" ry="15" fill="black"/><ellipse cx="239.5" cy="175" rx="15.5" ry="15" fill="black"/></g><g><path d="M229.552 330.449L229.692 330.481L229.836 330.493C275.961 334.297 303.62 354.785 323.694 383H50.3745C66.6742 353.658 89.8579 334.982 127.445 326.412C143.458 322.761 162.113 320.94 184 320.94C193.456 320.94 200.814 322.382 207.796 324.286C210.383 324.991 212.983 325.781 215.643 326.589C220.045 327.927 224.611 329.314 229.552 330.449Z" fill="#0C4F2F" stroke="black" stroke-width="4"/><path d="M115.93 328.581L125.083 308.984C125.301 308.516 125.845 308.294 126.332 308.466C164.258 321.891 198.761 320.946 230.735 312.045C231.138 311.933 231.568 312.081 231.814 312.418L245.747 331.471C246.129 331.995 245.934 332.733 245.33 332.97C211.723 346.167 148.662 343.923 116.414 329.904C115.903 329.682 115.694 329.087 115.93 328.581Z" fill="#3d8160" stroke="black" stroke-width="4"/></g><g><path d="M206 221.696C210.167 219.363 227 216.396 227 223.196C227 231.696 215.5 231.196 215.5 231.196C215.5 231.196 228.545 228.035 226 237.196C223.5 246.196 216.5 242.696 214.5 241.696" stroke="black" stroke-width="4"/></g><g><path d="M199.245 205.716C199.317 201.351 202.51 196.612 208.672 196.036C214.834 195.459 219.209 199.591 219.156 202.865" stroke="black" stroke-width="4"/></g><g><path d="M243.76 367.932C243.271 367.902 242.865 367.872 242.544 367.847C236.393 358.458 230.789 342.969 226.447 327.059C222.226 311.589 219.261 295.968 218.147 285.649C255.22 274.931 278.458 236.667 272.871 197.189C272.864 197.117 272.856 197.067 272.856 197.066C272.848 197.006 272.837 196.938 272.825 196.867C272.802 196.724 272.768 196.532 272.726 196.3C272.641 195.832 272.516 195.172 272.353 194.346C272.028 192.693 271.552 190.358 270.942 187.532C269.722 181.88 267.967 174.249 265.825 166.155C263.685 158.065 261.152 149.485 258.372 141.945C255.613 134.46 252.541 127.802 249.264 123.706L248.967 123.335L248.532 123.146C246.6 122.308 244.593 121.374 242.499 120.399C232.568 115.775 220.659 110.23 205.235 109.62C186.46 108.877 162.684 115.396 130.544 138.706L128.521 140.173L130.467 141.74C146.393 154.574 149.836 171.598 149.1 186.048C148.539 197.077 145.551 206.459 143.865 211.149C142.704 209.452 141.964 207.319 141.408 204.814C141.023 203.083 140.743 201.258 140.449 199.347L140.403 199.045C140.096 197.051 139.769 194.97 139.292 192.961C138.341 188.95 136.732 184.941 133.16 182.102C129.581 179.257 124.364 177.848 116.767 178.272L114.54 178.396L115.005 180.578L126.363 233.891L126.382 233.98L126.41 234.068C130.468 246.93 137.426 258.078 146.323 266.88C146.399 267.007 146.509 267.193 146.65 267.434C146.939 267.928 147.356 268.653 147.861 269.563C148.87 271.384 150.229 273.941 151.621 276.886C154.435 282.835 157.282 290.138 157.83 296.102C158.386 302.154 156.865 309.962 155.123 316.412C154.26 319.605 153.361 322.406 152.677 324.407C152.535 324.824 152.402 325.206 152.281 325.549C147.249 323.144 142.754 323.323 138.902 325.565C134.738 327.989 131.689 332.625 129.419 337.781C125.271 347.202 123.276 359.42 122.355 367.002C97.4846 361.298 78.281 355.507 65.2149 351.107C58.5012 348.846 53.408 346.953 49.9993 345.627C48.2949 344.964 47.0117 344.443 46.1575 344.089C45.9454 344.002 45.7598 343.924 45.6007 343.857C45.4477 343.466 45.2377 342.916 44.9828 342.219C44.4158 340.667 43.6268 338.384 42.7485 335.479C40.9915 329.667 38.8806 321.38 37.4734 311.502C34.6563 291.725 34.6769 265.696 45.8698 240.384C47.679 236.292 49.94 232.089 52.3903 227.533C61.8582 209.931 74.1551 187.07 74.1551 145.084C74.1551 114.493 89.0029 88.7305 110.862 70.5692C132.741 52.3915 161.56 41.9109 189.237 41.9109C204.368 41.9109 216.533 43.6444 226.311 49.5511C236.028 55.4212 243.679 65.5978 249.362 83.1322C249.94 84.9168 251.851 86.0074 253.719 85.4015C265.034 81.7304 282.191 85.4361 296.673 94.8904C311.091 104.303 322.289 119.046 322.289 136.814C322.289 152.24 319.647 162.664 317.071 172.815L317.071 172.815C313.952 185.104 310.94 196.974 313.065 216.313C313.774 222.762 315.216 227.336 317.231 231.128C319.213 234.859 321.712 237.747 324.345 240.792L324.405 240.861C330.679 248.113 333.534 254.079 334.455 259.327C335.375 264.562 334.412 269.31 332.623 274.237C331.723 276.712 330.629 279.197 329.47 281.815L329.37 282.04C328.249 284.573 327.074 287.225 326.019 290.016C323.836 295.787 322.133 302.223 322.302 309.851C322.446 316.326 323.594 320.764 325.311 324.122C327.008 327.442 329.199 329.565 331.111 331.417L331.162 331.466C332.905 333.155 334.355 334.577 335.428 336.57C336.387 338.351 337.098 340.702 337.217 344.232C313.208 358.511 289.445 364.413 271.601 366.734C262.565 367.91 255.057 368.166 249.818 368.129C247.199 368.11 245.149 368.019 243.76 367.932Z" fill="#F6CF45" stroke="black" stroke-width="3.82184"/></g><g><path d="M121.466 215.861L122 215.286V214.501V180.999V179.88L121.046 179.295C117.312 177.004 112.772 175.75 108.08 175.75C102.44 175.75 97.1591 177.497 93.3977 181.045C89.5942 184.632 87.5421 189.877 88.0869 196.416C88.6179 202.788 90.7569 207.477 94.3047 210.593C94.0134 211.592 93.9273 212.67 94.0624 213.803C94.4517 217.072 96.1039 219.427 98.6572 220.878C101.091 222.261 104.206 222.75 107.524 222.75C113.003 222.75 117.808 219.803 121.466 215.861Z" stroke="black" stroke-width="4"/><path fill-rule="evenodd" clip-rule="evenodd" d="M127.972 196.734C128.043 196.082 128.08 195.42 128.08 194.75C128.08 184.533 118.573 177.75 108.08 177.75C97.5866 177.75 89.0801 184.25 90.08 196.25C90.6364 202.927 93.0258 207.322 96.7307 209.967C96.1423 210.991 95.8848 212.194 96.0483 213.567C96.6774 218.848 101.186 220.75 107.524 220.75C118.629 220.75 127.416 206.703 127.972 196.734Z" fill="#F9C9B6"/><path d="M112.5 186.25C108.5 184.417 99.7 183.45 96.5 194.25" stroke="#171921" stroke-width="4"/><path d="M102 186.75C104.167 188.583 108.3 194.25 107.5 202.25" stroke="#171921" stroke-width="4"/></g><g><circle cx="115.5" cy="213" r="4" fill="#F4D150"/><circle cx="116.5" cy="212" r="1" fill="#FFEDEF"/></g></svg>