<svg width="500" height="500" viewBox="0 0 380 380" fill="none" xmlns="http://www.w3.org/2000/svg"><g>  <rect width="100%" height="100%" fill="#E0DDFF" /></g><g><g clip-path="url(#clip0)"><path d="M244 362.5C229.6 342.5 218.333 303.834 217 284.5L148.5 255L120 362.5H244Z" fill="#AC6651" stroke="black" stroke-width="4"/><mask id="mask0" mask-type="alpha" maskUnits="userSpaceOnUse" x="120" y="255" width="124" height="118"><path d="M244 372.5C229.6 352.5 218.333 303.834 217 284.5L148.5 255L120 372.5H244Z" fill="#AC6651"/></mask><g mask="url(#mask0)"><g style="mix-blend-mode:multiply"><ellipse cx="214" cy="253" rx="59" ry="54" fill="black"/></g></g><mask id="path-4-inside-1" fill="white"><path fill-rule="evenodd" clip-rule="evenodd" d="M273.887 193.917C273.86 193.802 273.832 193.686 273.804 193.57C273.777 193.454 273.749 193.339 273.72 193.223L257.324 124.786C257.307 124.718 257.291 124.651 257.275 124.583C257.259 124.515 257.242 124.447 257.226 124.379L257.153 124.076L257.152 124.076C246.934 82.6315 205.157 57.148 163.583 67.1088C122.009 77.0696 96.3164 118.718 105.989 160.294L105.987 160.294L122.979 231.212L122.993 231.209C133.595 272.113 175.063 297.15 216.33 287.262C257.598 277.375 283.217 236.265 274.132 194.997L274.145 194.994L273.887 193.917Z"/></mask><path fill-rule="evenodd" clip-rule="evenodd" d="M273.887 193.917C273.86 193.802 273.832 193.686 273.804 193.57C273.777 193.454 273.749 193.339 273.72 193.223L257.324 124.786C257.307 124.718 257.291 124.651 257.275 124.583C257.259 124.515 257.242 124.447 257.226 124.379L257.153 124.076L257.152 124.076C246.934 82.6315 205.157 57.148 163.583 67.1088C122.009 77.0696 96.3164 118.718 105.989 160.294L105.987 160.294L122.979 231.212L122.993 231.209C133.595 272.113 175.063 297.15 216.33 287.262C257.598 277.375 283.217 236.265 274.132 194.997L274.145 194.994L273.887 193.917Z" fill="#AC6651"/><path d="M273.887 193.917L269.993 194.832L269.995 194.841L269.997 194.849L273.887 193.917ZM273.72 193.223L269.831 194.155L269.833 194.164L269.835 194.173L273.72 193.223ZM257.324 124.786L253.431 125.708L253.434 125.718L257.324 124.786ZM257.226 124.379L253.336 125.311L253.339 125.322L257.226 124.379ZM257.153 124.076L261.043 123.144L260.112 119.256L256.223 120.186L257.153 124.076ZM257.152 124.076L253.268 125.034L254.219 128.89L258.082 127.967L257.152 124.076ZM163.583 67.1088L162.651 63.2189L163.583 67.1088ZM105.989 160.294L106.923 164.183L110.785 163.255L109.885 159.387L105.989 160.294ZM105.987 160.294L105.053 156.405L101.166 157.338L102.097 161.226L105.987 160.294ZM122.979 231.212L119.089 232.144L120.021 236.035L123.912 235.101L122.979 231.212ZM122.993 231.209L126.865 230.205L125.879 226.402L122.059 227.319L122.993 231.209ZM216.33 287.262L215.398 283.372H215.398L216.33 287.262ZM274.132 194.997L273.201 191.107L269.382 192.021L270.226 195.857L274.132 194.997ZM274.145 194.994L275.076 198.884L278.967 197.952L278.035 194.062L274.145 194.994ZM277.781 193.003C277.752 192.881 277.723 192.76 277.694 192.638L269.915 194.502C269.941 194.612 269.967 194.722 269.993 194.832L277.781 193.003ZM277.694 192.638C277.665 192.517 277.636 192.395 277.606 192.274L269.835 194.173C269.861 194.282 269.888 194.392 269.915 194.502L277.694 192.638ZM253.434 125.718L269.831 194.155L277.61 192.291L261.213 123.854L253.434 125.718ZM261.216 123.864C261.199 123.794 261.182 123.722 261.165 123.651L253.385 125.515C253.401 125.579 253.416 125.643 253.431 125.708L261.216 123.864ZM261.165 123.651C261.148 123.58 261.131 123.509 261.113 123.437L253.339 125.322C253.354 125.386 253.37 125.45 253.385 125.515L261.165 123.651ZM253.263 125.008L253.336 125.311L261.116 123.447L261.043 123.144L253.263 125.008ZM258.082 127.967L258.084 127.966L256.223 120.186L256.222 120.186L258.082 127.967ZM261.036 123.119C250.292 79.5405 206.365 52.7454 162.651 63.2189L164.515 70.9987C203.949 61.5506 243.576 85.7226 253.268 125.034L261.036 123.119ZM162.651 63.2189C118.937 73.6924 91.9225 117.484 102.093 161.2L109.885 159.387C100.71 119.952 125.081 80.4469 164.515 70.9987L162.651 63.2189ZM106.921 164.183L106.923 164.183L105.055 156.404L105.053 156.405L106.921 164.183ZM126.869 230.28L109.877 159.362L102.097 161.226L119.089 232.144L126.869 230.28ZM122.059 227.319L122.045 227.322L123.912 235.101L123.926 235.098L122.059 227.319ZM119.121 232.212C130.269 275.223 173.87 301.548 217.262 291.152L215.398 283.372C176.255 292.751 136.921 269.003 126.865 230.205L119.121 232.212ZM217.262 291.152C260.654 280.756 287.592 237.53 278.039 194.137L270.226 195.857C278.843 235 254.542 273.994 215.398 283.372L217.262 291.152ZM273.213 191.104L273.201 191.107L275.064 198.887L275.076 198.884L273.213 191.104ZM269.997 194.849L270.255 195.926L278.035 194.062L277.777 192.985L269.997 194.849Z" fill="black" mask="url(#path-4-inside-1)"/><path d="M270.125 194.454C279.614 234.058 255.201 273.856 215.597 283.344C192.29 288.929 168.915 282.771 151.691 268.686C134.499 252.8 130.499 201.3 126.692 176.949C140.691 208.45 176.316 210.895 210.192 204.95C238.691 199.95 261.49 198.95 261.49 159.95C263.376 162.566 268.468 187.537 270.125 194.454Z" fill="#AC6651"/></g><ellipse cx="209.75" cy="188.445" rx="69.5387" ry="31.1548" transform="rotate(-12.0124 209.75 188.445)" fill="url(#paint0_radial)"/><defs><radialGradient id="paint0_radial" cx="0" cy="0" r="1" gradientUnits="userSpaceOnUse" gradientTransform="translate(209.75 188.445) rotate(90) scale(31.1548 69.5387)"><stop stop-color="#ED9E56"/><stop offset="1" stop-color="#F7B9B9" stop-opacity="0"/></radialGradient><clipPath id="clip0"><rect width="200" height="320" fill="white" transform="translate(90 43)"/></clipPath></defs></g><g><path d="M147 150.5C153.167 153 168.1 153.5 178.5 135.5" stroke="black" stroke-width="4" stroke-linecap="round"/><path d="M214 128C219.167 133.333 232.1 140.8 242.5 128" stroke="black" stroke-width="4" stroke-linecap="round"/></g><g><path d="M183.5 183.5C183.5 192.851 175.703 200.5 166 200.5C156.297 200.5 148.5 192.851 148.5 183.5C148.5 174.149 156.297 166.5 166 166.5C175.703 166.5 183.5 174.149 183.5 183.5Z" fill="white" stroke="black" stroke-width="3"/><path d="M260.5 175.5C260.5 184.851 252.703 192.5 243 192.5C233.297 192.5 225.5 184.851 225.5 175.5C225.5 166.149 233.297 158.5 243 158.5C252.703 158.5 260.5 166.149 260.5 175.5Z" fill="white" stroke="black" stroke-width="3"/><ellipse cx="162.5" cy="183" rx="15.5" ry="15" fill="black"/><ellipse cx="239.5" cy="175" rx="15.5" ry="15" fill="black"/></g><g><path d="M322.849 383H50.3541C58.0406 368.805 65.2356 358.337 73.1955 350.713C81.6478 342.617 91.0279 337.667 102.945 334.95C104.62 334.568 106.824 334.585 109.549 335.011C112.254 335.434 115.35 336.239 118.755 337.331C125.572 339.517 133.421 342.783 141.55 346.208C142.067 346.426 142.586 346.645 143.105 346.864C150.708 350.069 158.494 353.352 165.713 355.884C173.384 358.573 180.642 360.5 186.5 360.5C191.673 360.5 198.201 358.904 205.157 356.691C211.183 354.775 217.702 352.337 224.16 349.922C225.199 349.533 226.237 349.145 227.271 348.76C234.766 345.968 242.06 343.324 248.453 341.6C254.934 339.852 260.119 339.161 263.552 339.949C280 343.726 286.721 346.268 293.711 352.181C297.283 355.203 300.949 359.128 305.981 364.668C306.687 365.446 307.419 366.254 308.18 367.094C312.133 371.457 316.868 376.685 322.849 383Z" fill="#0C4F2F" stroke="black" stroke-width="4"/><path d="M115.93 328.581L125.083 308.984C125.301 308.516 125.845 308.294 126.332 308.466C164.258 321.891 198.761 320.946 230.735 312.045C231.138 311.933 231.568 312.081 231.814 312.418L245.746 331.471C246.129 331.995 245.934 332.733 245.33 332.97C211.723 346.167 148.662 343.923 116.414 329.904C115.903 329.682 115.693 329.087 115.93 328.581Z" fill="#192223" stroke="black" stroke-width="4"/></g><g><path d="M179 248C182.211 240.043 194.107 223.233 216.007 219.652C237.907 216.071 249.127 228.107 252 234.572" stroke="black" stroke-width="4"/></g><g><path d="M205.687 185.055C205.89 188.898 207.385 197.137 211.735 199.353C217.174 202.123 212.91 211.306 202.729 210.717" stroke="#171921" stroke-width="4"/></g><g><path d="M271 179C271 170.95 263.5 153 266.5 139.5L260 149.5C265.167 162.167 271 186 271 179Z" fill="#6BD9E9"/><path d="M105.5 178L98 144.987C106.667 146.487 125.3 149 132.5 157C139.7 165 136.167 177.667 136 184C134 188.167 134.5 204 132.5 194C130.5 184 113.667 176.5 105.5 178Z" fill="#6BD9E9"/><path d="M154.5 107.5C144.255 107.5 133.5 116.333 130.5 119C121 114.5 138.5 86 147 78C152.542 72.7841 170.412 87.5476 178.852 95.129C179.53 95.6253 180.244 96.2442 181 97C181.686 97.6861 182.21 98.2055 182.587 98.5765C183.544 99.4878 183.655 99.6261 182.587 98.5765C181.824 97.8493 180.523 96.6299 178.852 95.129C168.765 87.745 166.681 107.5 154.5 107.5Z" fill="#6BD9E9"/><path d="M155 105C154.985 104.033 154.978 102.994 154.988 101.923C154.86 100.999 153.747 117.577 145 100.5C141.9 94.4471 137.5 105 137.5 120.5C137.5 132.9 123 128 114.5 135.5C124.667 141.5 142.1 155.8 130.5 165C137.5 171 116 155 105 148.5C94 142 77.5 139.5 85 128C92.5 116.5 88 120.5 98 88.5C106 62.9 127.667 64.5 137.5 68.5C140.333 67.1667 145.8 62.6 145 55C144 45.5 172.5 26.5 190 23.5C207.5 20.5 241.5 57.5 250.5 64.5L250.627 64.5986C259.846 71.7682 296.91 100.593 277.5 120.5C277.5 100.5 276 112.667 273 112.5C271.167 115.167 267.4 123.5 267 135.5C266.5 150.5 241.5 155.5 250.5 148.5C259.5 141.5 236 112.5 241.5 120.5C247 128.5 235 144 236 139.5C237 135 229.5 120.5 230.5 128C228 142.5 216.5 147 222 139.5C222 128 192 100.5 190 112.5C188.4 122.1 203.667 126.833 211.5 128C209 131.5 199.9 134.9 183.5 120.5C185.1 127.7 176.833 128.5 172.5 128C177 119.5 181.3 126.1 168.5 100.5C156.861 77.2211 155.089 91.1796 154.988 101.923C155.014 102.108 155 102.996 155 105Z" fill="#6BD9E9"/><path d="M178.852 95.129C168.765 87.745 166.681 107.5 154.5 107.5C144.255 107.5 133.5 116.333 130.5 119C121 114.5 138.5 86 147 78C152.542 72.7841 170.412 87.5476 178.852 95.129ZM178.852 95.129C179.53 95.6253 180.244 96.2443 181 97C181.686 97.6861 182.21 98.2055 182.587 98.5765M178.852 95.129C180.523 96.6299 181.824 97.8493 182.587 98.5765M182.587 98.5765C183.655 99.6261 183.544 99.4878 182.587 98.5765ZM154.988 101.923C154.978 102.994 154.985 104.033 155 105C155 102.996 155.014 102.108 154.988 101.923ZM154.988 101.923C155.089 91.1796 156.861 77.2211 168.5 100.5C181.3 126.1 177 119.5 172.5 128C176.833 128.5 185.1 127.7 183.5 120.5C199.9 134.9 209 131.5 211.5 128C203.667 126.833 188.4 122.1 190 112.5C192 100.5 222 128 222 139.5C216.5 147 228 142.5 230.5 128C229.5 120.5 237 135 236 139.5C235 144 247 128.5 241.5 120.5C236 112.5 259.5 141.5 250.5 148.5C241.5 155.5 266.5 150.5 267 135.5C267.4 123.5 271.167 115.167 273 112.5C276 112.667 277.5 100.5 277.5 120.5C296.91 100.593 259.846 71.7682 250.627 64.5986L250.5 64.5C241.5 57.5 207.5 20.5 190 23.5C172.5 26.5 144 45.5 145 55C145.8 62.6 140.333 67.1667 137.5 68.5C127.667 64.5 106 62.9 98 88.5C88 120.5 92.5 116.5 85 128C77.5 139.5 94 142 105 148.5C116 155 137.5 171 130.5 165C142.1 155.8 124.667 141.5 114.5 135.5C123 128 137.5 132.9 137.5 120.5C137.5 105 141.9 94.4471 145 100.5C153.747 117.577 154.86 100.999 154.988 101.923ZM266.5 139.5C263.5 153 271 170.95 271 179C271 186 265.167 162.167 260 149.5L266.5 139.5ZM98 144.987L105.5 178C113.667 176.5 130.5 184 132.5 194C134.5 204 134 188.167 136 184C136.167 177.667 139.7 165 132.5 157C125.3 149 106.667 146.487 98 144.987Z" stroke="black" stroke-width="4"/></g><g><path d="M121.466 215.861L122 215.286V214.501V180.999V179.88L121.046 179.295C117.312 177.004 112.772 175.75 108.08 175.75C102.44 175.75 97.1591 177.497 93.3977 181.045C89.5942 184.632 87.5421 189.877 88.0869 196.416C88.6179 202.788 90.7569 207.477 94.3047 210.593C94.0134 211.592 93.9273 212.67 94.0624 213.803C94.4517 217.072 96.1039 219.427 98.6572 220.878C101.091 222.261 104.206 222.75 107.524 222.75C113.003 222.75 117.808 219.803 121.466 215.861Z" stroke="black" stroke-width="4"/><path fill-rule="evenodd" clip-rule="evenodd" d="M127.972 196.734C128.043 196.082 128.08 195.42 128.08 194.75C128.08 184.533 118.573 177.75 108.08 177.75C97.5866 177.75 89.0801 184.25 90.08 196.25C90.6364 202.927 93.0258 207.322 96.7307 209.967C96.1423 210.991 95.8848 212.194 96.0483 213.567C96.6774 218.848 101.186 220.75 107.524 220.75C118.629 220.75 127.416 206.703 127.972 196.734Z" fill="#AC6651"/><path d="M112.5 186.25C108.5 184.417 99.7 183.45 96.5 194.25" stroke="#171921" stroke-width="4"/><path d="M102 186.75C104.167 188.583 108.3 194.25 107.5 202.25" stroke="#171921" stroke-width="4"/></g><g><circle cx="115.5" cy="213" r="4" fill="#F4D150"/><circle cx="116.5" cy="212" r="1" fill="#FFEDEF"/></g><g><path d="M137 205L135.651 202.572C145.404 204.981 172.641 203.985 187 202.5C201.5 201 207 196 215.5 194C232 190.118 252 197 271 194C272.167 205.667 273.8 232.9 271 244.5C261 260 249 276.5 213 286C184.2 293.6 149.333 260.333 137 244.5C140.333 243.5 147 239.2 147 230C145.5 221.5 145 212 137 205Z" fill="#579EE0"/><path d="M122 178L137 205C145 212 145.5 221.5 147 230C147 239.2 140.333 243.5 137 244.5M137 244.5C132 238.667 122 225.9 122 221.5M137 244.5C149.333 260.333 184.2 293.6 213 286C249 276.5 261 260 271 244.5C273.8 232.9 272.167 205.667 271 194C252 197 232 190.118 215.5 194C207 196 201.5 201 187 202.5C172.5 204 144.87 205 135.37 202.5" stroke="white" stroke-width="4"/><path d="M143.5 216C153 216 180.5 215.9 190.5 213.5C203 210.5 213.981 204.866 224 203.5C235 202 260.5 207.5 272 203.5" stroke="white" stroke-width="10"/><path d="M222 194L234.5 204.5C234.5 204.5 233 246.5 225 254.5" stroke="white" stroke-width="2"/></g></svg>