<svg width="500" height="500" viewBox="0 0 380 380" fill="none" xmlns="http://www.w3.org/2000/svg"><g>  <rect width="100%" height="100%" fill="#FFEDEF" /></g><g><g clip-path="url(#clip0)"><path d="M244 362.5C229.6 342.5 218.333 303.834 217 284.5L148.5 255L120 362.5H244Z" fill="#F9C9B6" stroke="black" stroke-width="4"/><mask id="mask0" mask-type="alpha" maskUnits="userSpaceOnUse" x="120" y="255" width="124" height="118"><path d="M244 372.5C229.6 352.5 218.333 303.834 217 284.5L148.5 255L120 372.5H244Z" fill="#AC6651"/></mask><g mask="url(#mask0)"><g style="mix-blend-mode:multiply"><ellipse cx="214" cy="253" rx="59" ry="54" fill="black"/></g></g><mask id="path-4-inside-1" fill="white"><path fill-rule="evenodd" clip-rule="evenodd" d="M273.887 193.917C273.86 193.802 273.832 193.686 273.804 193.57C273.777 193.454 273.749 193.339 273.72 193.223L257.324 124.786C257.307 124.718 257.291 124.651 257.275 124.583C257.259 124.515 257.242 124.447 257.226 124.379L257.153 124.076L257.152 124.076C246.934 82.6315 205.157 57.148 163.583 67.1088C122.009 77.0696 96.3164 118.718 105.989 160.294L105.987 160.294L122.979 231.212L122.993 231.209C133.595 272.113 175.063 297.15 216.33 287.262C257.598 277.375 283.217 236.265 274.132 194.997L274.145 194.994L273.887 193.917Z"/></mask><path fill-rule="evenodd" clip-rule="evenodd" d="M273.887 193.917C273.86 193.802 273.832 193.686 273.804 193.57C273.777 193.454 273.749 193.339 273.72 193.223L257.324 124.786C257.307 124.718 257.291 124.651 257.275 124.583C257.259 124.515 257.242 124.447 257.226 124.379L257.153 124.076L257.152 124.076C246.934 82.6315 205.157 57.148 163.583 67.1088C122.009 77.0696 96.3164 118.718 105.989 160.294L105.987 160.294L122.979 231.212L122.993 231.209C133.595 272.113 175.063 297.15 216.33 287.262C257.598 277.375 283.217 236.265 274.132 194.997L274.145 194.994L273.887 193.917Z" fill="#F9C9B6"/><path d="M273.887 193.917L269.993 194.832L269.995 194.841L269.997 194.849L273.887 193.917ZM273.72 193.223L269.831 194.155L269.833 194.164L269.835 194.173L273.72 193.223ZM257.324 124.786L253.431 125.708L253.434 125.718L257.324 124.786ZM257.226 124.379L253.336 125.311L253.339 125.322L257.226 124.379ZM257.153 124.076L261.043 123.144L260.112 119.256L256.223 120.186L257.153 124.076ZM257.152 124.076L253.268 125.034L254.219 128.89L258.082 127.967L257.152 124.076ZM163.583 67.1088L162.651 63.2189L163.583 67.1088ZM105.989 160.294L106.923 164.183L110.785 163.255L109.885 159.387L105.989 160.294ZM105.987 160.294L105.053 156.405L101.166 157.338L102.097 161.226L105.987 160.294ZM122.979 231.212L119.089 232.144L120.021 236.035L123.912 235.101L122.979 231.212ZM122.993 231.209L126.865 230.205L125.879 226.402L122.059 227.319L122.993 231.209ZM216.33 287.262L215.398 283.372H215.398L216.33 287.262ZM274.132 194.997L273.201 191.107L269.382 192.021L270.226 195.857L274.132 194.997ZM274.145 194.994L275.076 198.884L278.967 197.952L278.035 194.062L274.145 194.994ZM277.781 193.003C277.752 192.881 277.723 192.76 277.694 192.638L269.915 194.502C269.941 194.612 269.967 194.722 269.993 194.832L277.781 193.003ZM277.694 192.638C277.665 192.517 277.636 192.395 277.606 192.274L269.835 194.173C269.861 194.282 269.888 194.392 269.915 194.502L277.694 192.638ZM253.434 125.718L269.831 194.155L277.61 192.291L261.213 123.854L253.434 125.718ZM261.216 123.864C261.199 123.794 261.182 123.722 261.165 123.651L253.385 125.515C253.401 125.579 253.416 125.643 253.431 125.708L261.216 123.864ZM261.165 123.651C261.148 123.58 261.131 123.509 261.113 123.437L253.339 125.322C253.354 125.386 253.37 125.45 253.385 125.515L261.165 123.651ZM253.263 125.008L253.336 125.311L261.116 123.447L261.043 123.144L253.263 125.008ZM258.082 127.967L258.084 127.966L256.223 120.186L256.222 120.186L258.082 127.967ZM261.036 123.119C250.292 79.5405 206.365 52.7454 162.651 63.2189L164.515 70.9987C203.949 61.5506 243.576 85.7226 253.268 125.034L261.036 123.119ZM162.651 63.2189C118.937 73.6924 91.9225 117.484 102.093 161.2L109.885 159.387C100.71 119.952 125.081 80.4469 164.515 70.9987L162.651 63.2189ZM106.921 164.183L106.923 164.183L105.055 156.404L105.053 156.405L106.921 164.183ZM126.869 230.28L109.877 159.362L102.097 161.226L119.089 232.144L126.869 230.28ZM122.059 227.319L122.045 227.322L123.912 235.101L123.926 235.098L122.059 227.319ZM119.121 232.212C130.269 275.223 173.87 301.548 217.262 291.152L215.398 283.372C176.255 292.751 136.921 269.003 126.865 230.205L119.121 232.212ZM217.262 291.152C260.654 280.756 287.592 237.53 278.039 194.137L270.226 195.857C278.843 235 254.542 273.994 215.398 283.372L217.262 291.152ZM273.213 191.104L273.201 191.107L275.064 198.887L275.076 198.884L273.213 191.104ZM269.997 194.849L270.255 195.926L278.035 194.062L277.777 192.985L269.997 194.849Z" fill="black" mask="url(#path-4-inside-1)"/><path d="M270.125 194.454C279.614 234.058 255.201 273.856 215.597 283.344C192.29 288.929 168.915 282.771 151.691 268.686C134.499 252.8 130.499 201.3 126.692 176.949C140.691 208.45 176.316 210.895 210.192 204.95C238.691 199.95 261.49 198.95 261.49 159.95C263.376 162.566 268.468 187.537 270.125 194.454Z" fill="#F9C9B6"/></g><ellipse cx="209.75" cy="188.445" rx="69.5387" ry="31.1548" transform="rotate(-12.0124 209.75 188.445)" fill="url(#paint0_radial)"/><defs><radialGradient id="paint0_radial" cx="0" cy="0" r="1" gradientUnits="userSpaceOnUse" gradientTransform="translate(209.75 188.445) rotate(90) scale(31.1548 69.5387)"><stop stop-color="#ED9E56"/><stop offset="1" stop-color="#F7B9B9" stop-opacity="0"/></radialGradient><clipPath id="clip0"><rect width="200" height="320" fill="white" transform="translate(90 43)"/></clipPath></defs></g><g><path d="M147 150.5C153.167 153 168.1 153.5 178.5 135.5" stroke="black" stroke-width="4" stroke-linecap="round"/><path d="M214 128C219.167 133.333 232.1 140.8 242.5 128" stroke="black" stroke-width="4" stroke-linecap="round"/></g><g><path fill-rule="evenodd" clip-rule="evenodd" d="M157.287 173.072C157.401 173.885 158.434 174.066 159.009 173.48C161.474 170.964 165.264 169.116 169.663 168.593C172.258 168.285 174.754 168.475 176.979 169.065C177.733 169.266 178.474 168.629 178.21 167.895C176.545 163.249 171.845 160.196 166.736 160.803C160.794 161.509 156.55 166.897 157.256 172.839C157.266 172.917 157.276 172.995 157.287 173.072Z" fill="black"/><path fill-rule="evenodd" clip-rule="evenodd" d="M221.385 163.073C221.498 163.886 222.531 164.067 223.106 163.482C225.549 160.996 229.298 159.17 233.649 158.653C236.213 158.348 238.681 158.535 240.88 159.117C241.634 159.316 242.375 158.679 242.111 157.946C240.456 153.352 235.804 150.335 230.748 150.935C224.862 151.635 220.658 156.973 221.357 162.859C221.366 162.93 221.375 163.002 221.385 163.073Z" fill="black"/></g><g><path d="M323.366 382.863H50.4563C50.4907 382.793 50.5255 382.722 50.5604 382.651C55.1052 373.395 63.4899 356.319 74.4025 341.041C80.5961 332.37 87.5303 324.387 94.9416 318.772C102.354 313.156 110.061 310.04 117.892 310.726C132.946 312.043 146.355 320.285 159.817 328.56C161.092 329.344 162.368 330.129 163.646 330.908C178.131 339.735 193.005 347.931 209.365 344.345C214.899 343.131 218.629 340.535 220.976 337.18C223.29 333.873 224.122 330.029 224.266 326.517C224.41 322.999 223.871 319.674 223.311 317.256C223.049 316.126 222.779 315.179 222.564 314.484C226.189 310.835 230.027 308.71 233.989 307.753C238.284 306.716 242.876 307.016 247.707 308.445C257.437 311.323 267.847 318.697 278.007 328.179C296.621 345.552 313.7 369.323 323.366 382.863Z" fill="#ffffff" stroke="black" stroke-width="4.27431"/></g><g><path d="M192.5 227.5C192.5 227.5 199 232 207 233C215 234 216.513 235.549 216.513 235.549" stroke="black" stroke-width="4"/></g><g><path d="M199.245 205.716C199.317 201.351 202.51 196.612 208.672 196.036C214.834 195.459 219.209 199.591 219.156 202.865" stroke="black" stroke-width="4"/></g><g><path d="M86.9987 90.3138C108.199 42.7137 165.667 35.163 186 37.3297C240.4 38.9297 270.667 80.663 275.5 101.33C258.7 112.93 183.5 114.83 160.5 114.33C169.3 121.13 191.5 120.83 196.5 119.83C173.7 140.63 132.833 150.496 113.5 153.33C118.333 174.163 132.223 219.119 130.482 227.577C128.478 237.316 134.199 246.349 138.288 258.244L125.075 236.562C125.075 236.562 100.35 271.525 78.5156 244.174C56.6813 216.823 82.7222 207.046 99.3348 199.558C85.6169 160.904 65.7989 137.914 86.9987 90.3138Z" fill="#876565" stroke="black" stroke-width="4"/><path d="M98.5 200L99.3342 199.566C99.3342 199.566 112.204 212.889 114.962 216.336C117.72 219.784 125.535 235.413 125.535 235.413L124.5 237.5C124.5 237.5 115.833 219.5 113 216.5C104.5 207.5 98.5 200 98.5 200Z" fill="#C4C4C4"/></g><g><path d="M121.466 215.861L122 215.286V214.501V180.999V179.88L121.046 179.295C117.312 177.004 112.772 175.75 108.08 175.75C102.44 175.75 97.1591 177.497 93.3977 181.045C89.5942 184.632 87.5421 189.877 88.0869 196.416C88.6179 202.788 90.7569 207.477 94.3047 210.593C94.0134 211.592 93.9273 212.67 94.0624 213.803C94.4517 217.072 96.1039 219.427 98.6572 220.878C101.091 222.261 104.206 222.75 107.524 222.75C113.003 222.75 117.808 219.803 121.466 215.861Z" stroke="black" stroke-width="4"/><path fill-rule="evenodd" clip-rule="evenodd" d="M127.972 196.734C128.043 196.082 128.08 195.42 128.08 194.75C128.08 184.533 118.573 177.75 108.08 177.75C97.5866 177.75 89.0801 184.25 90.08 196.25C90.6364 202.927 93.0258 207.322 96.7307 209.967C96.1423 210.991 95.8848 212.194 96.0483 213.567C96.6774 218.848 101.186 220.75 107.524 220.75C118.629 220.75 127.416 206.703 127.972 196.734Z" fill="#F9C9B6"/><path d="M112.5 186.25C108.5 184.417 99.7 183.45 96.5 194.25" stroke="#171921" stroke-width="4"/><path d="M102 186.75C104.167 188.583 108.3 194.25 107.5 202.25" stroke="#171921" stroke-width="4"/></g><g><path d="M142.961 177.5L108.461 184.125" stroke="black" stroke-width="4" stroke-linecap="round"/><path d="M138.949 160.94C138.079 157.481 140.401 154.032 143.933 153.535L182.649 148.094C185.931 147.633 188.965 149.919 189.426 153.201L194.993 192.811C195.454 196.093 193.168 199.127 189.886 199.588L155.414 204.433C152.377 204.86 149.507 202.928 148.76 199.955L138.949 160.94Z" stroke="black" stroke-width="4"/><path d="M261.212 143.964C261.095 140.399 257.912 137.723 254.38 138.22L215.663 143.661C212.382 144.122 210.096 147.156 210.557 150.437L216.124 190.048C216.585 193.33 219.619 195.616 222.9 195.155L257.373 190.31C260.409 189.883 262.636 187.236 262.535 184.171L261.212 143.964Z" stroke="black" stroke-width="4"/><path d="M191.961 172.125L213.961 168.625" stroke="black" stroke-width="4"/></g></svg>