<svg width="717" height="118" viewBox="0 0 717 118" fill="none" xmlns="http://www.w3.org/2000/svg">

  <style>
    path {
      transform: translateX(100%);
      opacity: 0;
      animation: slideIn 0.4s ease 0s 1 normal forwards;
    }
    @keyframes slideIn {
      from {
        transform:  translateY(-100%);
        opacity: 0;
      }
      to {
        transform: translateX(0);
        opacity: 1;
      }
    }
  </style>
  <path style="animation-delay: 0.1s" d="M70 116H56V105.8L44 116H14C10.1333 116 6.8 114.667 4 112C1.33333 109.2 0 105.867 0 102V88C0 84.1333 1.33333 80.8667 4 78.2C6.8 75.4 10.1333 74 14 74H54L42 85.8H14V104H56V58H0L12 46H56C59.8667 46 63.1333 47.4 65.8 50.2C68.6 52.8667 70 56.1333 70 60V116Z" fill="#34495E" />
  <path style="animation-delay: 0.15s" d="M154.922 46L142.722 58H108.922V74H136.922C140.789 74 144.055 75.4 146.722 78.2C149.522 80.8667 150.922 84.1333 150.922 88V102C150.922 105.867 149.522 109.2 146.722 112C144.055 114.667 140.789 116 136.922 116H94.9219V104H136.922V86H108.922C105.055 86 101.722 84.6667 98.9219 82C96.2552 79.2 94.9219 75.8667 94.9219 72V60C94.9219 56.1333 96.2552 52.8667 98.9219 50.2C101.722 47.4 105.055 46 108.922 46H154.922Z" fill="#34495E" />
  <path style="animation-delay: 0.2s" d="M247.852 116H233.852V58H191.852V116H177.852V14L191.852 0V56L201.852 46H233.852C237.718 46 240.985 47.4 243.652 50.2C246.452 52.8667 247.852 56.1333 247.852 60V116Z" fill="#34495E" />
  <path style="animation-delay: 0.25s" d="M347.852 102C347.852 105.867 346.452 109.2 343.652 112C340.985 114.667 337.718 116 333.852 116H291.852V104.2L277.852 118V14L291.852 0V56L301.852 46H333.852C337.718 46 340.985 47.4 343.652 50.2C346.452 52.8667 347.852 56.1333 347.852 60V102ZM333.852 104V58H291.852V104H333.852Z" fill="#41B883" />
  <path style="animation-delay: 0.3s" d="M445.852 102C445.852 105.867 444.452 109.2 441.652 112C438.985 114.667 435.718 116 431.852 116H389.852C385.985 116 382.652 114.667 379.852 112C377.185 109.2 375.852 105.867 375.852 102V60C375.852 56.1333 377.185 52.8667 379.852 50.2C382.652 47.4 385.985 46 389.852 46H431.852C435.718 46 438.985 47.4 441.652 50.2C444.452 52.8667 445.852 56.1333 445.852 60V102ZM431.852 104V58H389.852V104H431.852Z" fill="#34495E" />
  <path style="animation-delay: 0.35s" d="M540.898 116H526.898V105.8L514.898 116H484.898C481.032 116 477.698 114.667 474.898 112C472.232 109.2 470.898 105.867 470.898 102V88C470.898 84.1333 472.232 80.8667 474.898 78.2C477.698 75.4 481.032 74 484.898 74H524.898L512.898 85.8H484.898V104H526.898V58H470.898L482.898 46H526.898C530.765 46 534.032 47.4 536.698 50.2C539.498 52.8667 540.898 56.1333 540.898 60V116Z" fill="#34495E" />
  <path style="animation-delay: 0.4s" d="M624.82 74H610.82V58H582.82V116H568.82V46H582.82V56L592.82 46H610.82C614.687 46 617.954 47.4 620.62 50.2C623.42 52.8667 624.82 56.1333 624.82 60V74Z" fill="#34495E" />
  <path style="animation-delay: 0.45s" d="M716.75 116H702.75V106L692.75 116H660.75C656.883 116 653.55 114.667 650.75 112C648.083 109.2 646.75 105.867 646.75 102V60C646.75 56.1333 648.083 52.8667 650.75 50.2C653.55 47.4 656.883 46 660.75 46H702.75V14L716.75 0V116ZM702.75 104V48L692.75 58H660.75V104H702.75Z" fill="#34495E" />
</svg>